<svg width="2200" height="400">
      <g transform="translate(50, 200)"><circle r="4" class="s1 age-45" cx="13.652053632483796" cy="-1.6974374422902963" style="fill: lime;"></circle><circle r="4" class="s1 age-45" cx="23.62353258190014" cy="-0.9528417989776059" style="fill: lime;"></circle><circle r="4" class="s1 age-45" cx="29.256588605222113" cy="-9.214886839151704" style="fill: lime;"></circle><circle r="4" class="s1 age-45" cx="27.967388330065443" cy="8.055551457077343" style="fill: tomato;"></circle><circle r="4" class="s1 age-45" cx="17.994141333442222" cy="7.310629717019863" style="fill: tomato;"></circle><circle r="4" class="s1 age-45" cx="33.59654582301859" cy="-0.2069899345701375" style="fill: tomato;"></circle><circle r="4" class="s1 age-45" cx="22.335475144009504" cy="16.319115755058235" style="fill: tomato;"></circle><circle r="4" class="s1 age-45" cx="19.284922002764805" cy="-9.960060112215208" style="fill: tomato;"></circle><circle r="4" class="s2 age-45" cx="433.83123955722726" cy="18.814912768826655" style="fill: lime;"></circle><circle r="4" class="s2 age-45" cx="443.81391164698687" cy="18.5212408031163" style="fill: lime;"></circle><circle r="4" class="s2 age-45" cx="401.56664718213005" cy="3.1376488071921793" style="fill: lime;"></circle><circle r="4" class="s2 age-45" cx="417.5494064541487" cy="-23.950528722380017" style="fill: lime;"></circle><circle r="4" class="s2 age-45" cx="428.0833423905815" cy="-6.977558595584174" style="fill: lime;"></circle><circle r="4" class="s2 age-45" cx="412.8209585902552" cy="-15.154356281419341" style="fill: lime;"></circle><circle r="4" class="s2 age-45" cx="453.8142050400609" cy="18.2351696163884" style="fill: lime;"></circle><circle r="4" class="s2 age-45" cx="444.31739376292336" cy="35.830903771082625" style="fill: lime;"></circle><circle r="4" class="s2 age-45" cx="413.84827126407373" cy="19.360918499723716" style="fill: lime;"></circle><circle r="4" class="s2 age-45" cx="412.28233248421793" cy="-32.44107616818483" style="fill: lime;"></circle><circle r="4" class="s2 age-45" cx="409.0982549268197" cy="28.149470078714536" style="fill: lime;"></circle><circle r="4" class="s2 age-45" cx="442.26257639750565" cy="-33.38658711151717" style="fill: lime;"></circle><circle r="4" class="s2 age-45" cx="432.269717834843" cy="-33.07269610431106" style="fill: lime;"></circle><circle r="4" class="s2 age-45" cx="434.32369135517035" cy="36.11467901267442" style="fill: lime;"></circle><circle r="4" class="s2 age-45" cx="424.3255514433568" cy="36.39356209389149" style="fill: lime;"></circle><circle r="4" class="s2 age-45" cx="452.78821507095074" cy="-16.38538307366494" style="fill: lime;"></circle><circle r="4" class="s2 age-45" cx="449.06559134752973" cy="27.02723229901271" style="fill: lime;"></circle><circle r="4" class="s2 age-45" cx="429.08468231865106" cy="27.600168656329647" style="fill: lime;"></circle><circle r="4" class="s2 age-45" cx="419.0857627055281" cy="27.874976041411028" style="fill: lime;"></circle><circle r="4" class="s2 age-45" cx="408.62744783067785" cy="10.215527393801715" style="fill: tomato;"></circle><circle r="4" class="s2 age-45" cx="428.6040533766464" cy="10.322139296467348" style="fill: tomato;"></circle><circle r="4" class="s2 age-45" cx="426.9968492067493" cy="-41.56393741374973" style="fill: tomato;"></circle><circle r="4" class="s2 age-45" cx="422.8151749387139" cy="-15.468437347044135" style="fill: tomato;"></circle><circle r="4" class="s2 age-45" cx="405.9281609740842" cy="-7.907077936901052" style="fill: tomato;"></circle><circle r="4" class="s2 age-45" cx="448.05350492755014" cy="-7.5833733332233795" style="fill: tomato;"></circle><circle r="4" class="s2 age-45" cx="407.55374485426256" cy="-23.631557645992846" style="fill: tomato;"></circle><circle r="4" class="s2 age-45" cx="458.56008245997543" cy="9.43125880200209" style="fill: tomato;"></circle><circle r="4" class="s2 age-45" cx="458.0392366086565" cy="-7.879077138408115" style="fill: tomato;"></circle><circle r="4" class="s2 age-45" cx="437.53223805842964" cy="-24.585423771036385" style="fill: tomato;"></circle><circle r="4" class="s2 age-45" cx="403.8624733353637" cy="18.992656468809194" style="fill: tomato;"></circle><circle r="4" class="s2 age-45" cx="447.5219600796562" cy="-24.882476458523023" style="fill: tomato;"></circle><circle r="4" class="s2 age-45" cx="422.26816837378203" cy="-32.75594938542332" style="fill: tomato;"></circle><circle r="4" class="s2 age-45" cx="442.7994483686793" cy="-16.080699159773303" style="fill: tomato;"></circle><circle r="4" class="s2 age-45" cx="433.3244973477998" cy="1.5191932747576988" style="fill: tomato;"></circle><circle r="4" class="s2 age-45" cx="418.5994969987242" cy="10.5880916192414" style="fill: tomato;"></circle><circle r="4" class="s2 age-45" cx="432.79914809401754" cy="-15.770643742717105" style="fill: tomato;"></circle><circle r="4" class="s2 age-45" cx="411.2262022635805" cy="0.5786884600879205" style="fill: tomato;"></circle><circle r="4" class="s2 age-45" cx="448.5742714056368" cy="9.732644268808642" style="fill: tomato;"></circle><circle r="4" class="s2 age-45" cx="453.3072323034698" cy="0.9214694977990703" style="fill: tomato;"></circle><circle r="4" class="s2 age-45" cx="418.1006814819924" cy="-6.69045968115144" style="fill: tomato;"></circle><circle r="4" class="s2 age-45" cx="438.061137767285" cy="-7.284344801689909" style="fill: tomato;"></circle><circle r="4" class="s2 age-45" cx="438.574456575174" cy="10.022248053504061" style="fill: tomato;"></circle><circle r="4" class="s2 age-45" cx="443.3182767595249" cy="1.2190571514588653" style="fill: tomato;"></circle><circle r="4" class="s2 age-45" cx="423.3663006815288" cy="1.8109081049020772" style="fill: tomato;"></circle><circle r="4" class="s2 age-45" cx="439.07321350611113" cy="27.312426637170088" style="fill: tomato;"></circle><circle r="4" class="s2 age-45" cx="427.54032995752664" cy="-24.26683942804782" style="fill: tomato;"></circle><circle r="4" class="s2 age-45" cx="423.84086053787166" cy="19.09364798420456" style="fill: tomato;"></circle><circle r="4" class="s3 age-45" cx="820.0617125627806" cy="24.015697067895342" style="fill: lime;"></circle><circle r="4" class="s3 age-45" cx="772.7314770526623" cy="-9.478802062752255" style="fill: lime;"></circle><circle r="4" class="s3 age-45" cx="800.6931354540076" cy="28.85461468128088" style="fill: lime;"></circle><circle r="4" class="s3 age-45" cx="847.2099196197676" cy="-35.42739423214223" style="fill: lime;"></circle><circle r="4" class="s3 age-45" cx="809.5840343317548" cy="0.9781888448691819" style="fill: lime;"></circle><circle r="4" class="s3 age-45" cx="837.2510542396359" cy="62.41891733494551" style="fill: lime;"></circle><circle r="4" class="s3 age-45" cx="810.5955552540439" cy="-8.524549292116145" style="fill: lime;"></circle><circle r="4" class="s3 age-45" cx="791.0813781311602" cy="11.849759475773991" style="fill: lime;"></circle><circle r="4" class="s3 age-45" cx="797.6607316376555" cy="4.3916202015777985" style="fill: lime;"></circle><circle r="4" class="s3 age-45" cx="763.5734597657992" cy="-13.376811073112568" style="fill: lime;"></circle><circle r="4" class="s3 age-45" cx="865.1832089138193" cy="25.21340229352845" style="fill: lime;"></circle><circle r="4" class="s3 age-45" cx="809.156122680467" cy="62.260627628123196" style="fill: lime;"></circle><circle r="4" class="s3 age-45" cx="810.4931712708022" cy="26.42058019562976" style="fill: lime;"></circle><circle r="4" class="s3 age-45" cx="874.84704479793" cy="10.914935805994755" style="fill: lime;"></circle><circle r="4" class="s3 age-45" cx="856.1684962776555" cy="-39.79889874187261" style="fill: lime;"></circle><circle r="4" class="s3 age-45" cx="778.5099266296044" cy="38.23780030134635" style="fill: lime;"></circle><circle r="4" class="s3 age-45" cx="791.9940800743456" cy="-6.755337944689385" style="fill: lime;"></circle><circle r="4" class="s3 age-45" cx="781.2455142583441" cy="28.6499190981888" style="fill: lime;"></circle><circle r="4" class="s3 age-45" cx="771.5121611148428" cy="26.466656993485124" style="fill: lime;"></circle><circle r="4" class="s3 age-45" cx="805.4261788944759" cy="-63.47194287550877" style="fill: lime;"></circle><circle r="4" class="s3 age-45" cx="862.0734873310352" cy="44.90906205836306" style="fill: lime;"></circle><circle r="4" class="s3 age-45" cx="795.509342336728" cy="-48.32426567863284" style="fill: lime;"></circle><circle r="4" class="s3 age-45" cx="812.0039428577352" cy="-28.228323563731493" style="fill: lime;"></circle><circle r="4" class="s3 age-45" cx="790.1148188028396" cy="-16.462605036664883" style="fill: lime;"></circle><circle r="4" class="s3 age-45" cx="781.3274534647697" cy="9.657896261911953" style="fill: lime;"></circle><circle r="4" class="s3 age-45" cx="764.8051477968469" cy="14.688945910745689" style="fill: lime;"></circle><circle r="4" class="s3 age-45" cx="772.0841836563328" cy="-19.446213514484555" style="fill: lime;"></circle><circle r="4" class="s3 age-45" cx="823.0684758435713" cy="14.781289949605334" style="fill: lime;"></circle><circle r="4" class="s3 age-45" cx="814.3842410971125" cy="-67.91519198410744" style="fill: lime;"></circle><circle r="4" class="s3 age-45" cx="811.9307444885695" cy="52.68947999599457" style="fill: lime;"></circle><circle r="4" class="s3 age-45" cx="845.6661800934829" cy="33.67297603986558" style="fill: lime;"></circle><circle r="4" class="s3 age-45" cx="873.0076020039181" cy="-14.348018335171211" style="fill: lime;"></circle><circle r="4" class="s3 age-45" cx="865.8443607687964" cy="15.25449938398932" style="fill: lime;"></circle><circle r="4" class="s3 age-45" cx="868.120617772809" cy="-5.65257152361105" style="fill: lime;"></circle><circle r="4" class="s3 age-45" cx="792.450787436587" cy="57.508028682739024" style="fill: lime;"></circle><circle r="4" class="s3 age-45" cx="786.6859359503889" cy="-52.99062149547242" style="fill: lime;"></circle><circle r="4" class="s3 age-45" cx="859.0439494820612" cy="54.4319915537239" style="fill: lime;"></circle><circle r="4" class="s3 age-45" cx="839.5441870939421" cy="-51.00056525312943" style="fill: lime;"></circle><circle r="4" class="s3 age-45" cx="802.1635268201304" cy="55.118691264305234" style="fill: lime;"></circle><circle r="4" class="s3 age-45" cx="804.8461005146396" cy="-53.52717081231073" style="fill: lime;"></circle><circle r="4" class="s3 age-45" cx="825.9783952646558" cy="66.86660943817807" style="fill: lime;"></circle><circle r="4" class="s3 age-45" cx="856.8524061783406" cy="19.718971071939187" style="fill: lime;"></circle><circle r="4" class="s3 age-45" cx="785.0197779081326" cy="-31.376493373272613" style="fill: lime;"></circle><circle r="4" class="s3 age-45" cx="850.5331777189343" cy="49.24767671841095" style="fill: lime;"></circle><circle r="4" class="s3 age-45" cx="827.132070413899" cy="30.892251231102765" style="fill: lime;"></circle><circle r="4" class="s3 age-45" cx="848.6886223862359" cy="13.981881138829406" style="fill: lime;"></circle><circle r="4" class="s3 age-45" cx="807.6718148817964" cy="35.91952341209898" style="fill: lime;"></circle><circle r="4" class="s3 age-45" cx="829.3428927014054" cy="-26.792387170033283" style="fill: lime;"></circle><circle r="4" class="s3 age-45" cx="847.8681267176394" cy="-45.39352956034691" style="fill: lime;"></circle><circle r="4" class="s3 age-45" cx="846.5343895169989" cy="-25.456607750178012" style="fill: lime;"></circle><circle r="4" class="s3 age-45" cx="824.4443751722716" cy="40.5080334733044" style="fill: lime;"></circle><circle r="4" class="s3 age-45" cx="766.9018103756323" cy="-1.410654312574168" style="fill: lime;"></circle><circle r="4" class="s3 age-45" cx="822.7666124567647" cy="-62.35594222012283" style="fill: lime;"></circle><circle r="4" class="s3 age-45" cx="781.7862559135799" cy="-21.901651632935454" style="fill: lime;"></circle><circle r="4" class="s3 age-45" cx="859.1707384099293" cy="-1.3327654702039833" style="fill: lime;"></circle><circle r="4" class="s3 age-45" cx="828.7057949253372" cy="57.26964761461939" style="fill: lime;"></circle><circle r="4" class="s3 age-45" cx="813.7913921481376" cy="-57.967859283862715" style="fill: lime;"></circle><circle r="4" class="s3 age-45" cx="813.20793329337" cy="-48.04164990728686" style="fill: lime;"></circle><circle r="4" class="s3 age-45" cx="818.9860880470455" cy="59.71841878285029" style="fill: lime;"></circle><circle r="4" class="s3 age-45" cx="793.9149209665021" cy="21.425353223335023" style="fill: lime;"></circle><circle r="4" class="s3 age-45" cx="804.2634865765407" cy="-43.6204631639512" style="fill: lime;"></circle><circle r="4" class="s3 age-45" cx="839.666513421831" cy="18.1922020411485" style="fill: lime;"></circle><circle r="4" class="s3 age-45" cx="848.5190846491827" cy="-55.36524793996668" style="fill: lime;"></circle><circle r="4" class="s3 age-45" cx="774.5237739539062" cy="16.95273031419462" style="fill: lime;"></circle><circle r="4" class="s3 age-45" cx="787.98523078175" cy="2.2609660171255506" style="fill: lime;"></circle><circle r="4" class="s3 age-45" cx="854.0328184906153" cy="-9.862497186773432" style="fill: lime;"></circle><circle r="4" class="s3 age-45" cx="830.576470035952" cy="-46.696942821898716" style="fill: tomato;"></circle><circle r="4" class="s3 age-45" cx="796.0870167825614" cy="-58.29812630470353" style="fill: tomato;"></circle><circle r="4" class="s3 age-45" cx="813.3339818326696" cy="16.641355029706858" style="fill: tomato;"></circle><circle r="4" class="s3 age-45" cx="842.6421230320772" cy="43.178621359759234" style="fill: tomato;"></circle><circle r="4" class="s3 age-45" cx="812.5947079515597" cy="-38.04314337707569" style="fill: tomato;"></circle><circle r="4" class="s3 age-45" cx="804.9542623120836" cy="45.56337729771623" style="fill: tomato;"></circle><circle r="4" class="s3 age-45" cx="847.8396736739669" cy="58.86744168616068" style="fill: tomato;"></circle><circle r="4" class="s3 age-45" cx="831.1702101672748" cy="-56.64735968716443" style="fill: tomato;"></circle><circle r="4" class="s3 age-45" cx="821.7371069599567" cy="50.12206828154028" style="fill: tomato;"></circle><circle r="4" class="s3 age-45" cx="845.0230501869621" cy="-5.537484800693366" style="fill: tomato;"></circle><circle r="4" class="s3 age-45" cx="864.4637561274737" cy="-34.20356647170691" style="fill: tomato;"></circle><circle r="4" class="s3 age-45" cx="853.570842582566" cy="39.71195282168046" style="fill: tomato;"></circle><circle r="4" class="s3 age-45" cx="829.9706191677185" cy="-36.71771231915397" style="fill: tomato;"></circle><circle r="4" class="s3 age-45" cx="778.108593620262" cy="-38.57731132167333" style="fill: tomato;"></circle><circle r="4" class="s3 age-45" cx="839.9320712054326" cy="52.79294520011018" style="fill: tomato;"></circle><circle r="4" class="s3 age-45" cx="866.6150593958629" cy="5.278013082435102" style="fill: tomato;"></circle><circle r="4" class="s3 age-45" cx="838.9387847792809" cy="-41.05624617089346" style="fill: tomato;"></circle><circle r="4" class="s3 age-45" cx="788.2285640341913" cy="40.52311015316088" style="fill: tomato;"></circle><circle r="4" class="s3 age-45" cx="855.7392093778224" cy="29.955264807716926" style="fill: tomato;"></circle><circle r="4" class="s3 age-45" cx="856.8193109585543" cy="-49.78495462821705" style="fill: tomato;"></circle><circle r="4" class="s3 age-45" cx="864.2584832326525" cy="35.15238707289268" style="fill: tomato;"></circle><circle r="4" class="s3 age-45" cx="847.7729458729208" cy="23.92769386053808" style="fill: tomato;"></circle><circle r="4" class="s3 age-45" cx="799.8141245352215" cy="-14.440164218303753" style="fill: tomato;"></circle><circle r="4" class="s3 age-45" cx="793.964209067638" cy="-35.85558578906088" style="fill: tomato;"></circle><circle r="4" class="s3 age-45" cx="863.7695916264012" cy="-24.22489055103405" style="fill: tomato;"></circle><circle r="4" class="s3 age-45" cx="857.6276344510558" cy="9.615788276459458" style="fill: tomato;"></circle><circle r="4" class="s3 age-45" cx="827.8278491148062" cy="-6.890685817531551" style="fill: tomato;"></circle><circle r="4" class="s3 age-45" cx="838.289667375015" cy="-31.090460152367548" style="fill: tomato;"></circle><circle r="4" class="s3 age-45" cx="875.6067640883108" cy="0.9446769521271173" style="fill: tomato;"></circle><circle r="4" class="s3 age-45" cx="828.6357567715095" cy="-16.867038231629127" style="fill: tomato;"></circle><circle r="4" class="s3 age-45" cx="818.732904163401" cy="-2.8399781942372457" style="fill: tomato;"></circle><circle r="4" class="s3 age-45" cx="778.3791092804543" cy="-0.517935724518607" style="fill: tomato;"></circle><circle r="4" class="s3 age-45" cx="840.1627555713287" cy="-60.975660290047344" style="fill: tomato;"></circle><circle r="4" class="s3 age-45" cx="841.3294999434187" cy="7.265321177993363" style="fill: tomato;"></circle><circle r="4" class="s3 age-45" cx="774.8758572340591" cy="-29.12443841608997" style="fill: tomato;"></circle><circle r="4" class="s3 age-45" cx="830.1782562266659" cy="21.417665102873737" style="fill: tomato;"></circle><circle r="4" class="s3 age-45" cx="837.5691148284579" cy="-21.163120252992492" style="fill: tomato;"></circle><circle r="4" class="s3 age-45" cx="834.0800744086356" cy="38.01271727867636" style="fill: tomato;"></circle><circle r="4" class="s3 age-45" cx="837.2005328868637" cy="28.53034659720913" style="fill: tomato;"></circle><circle r="4" class="s3 age-45" cx="803.5688432373888" cy="19.52569201190054" style="fill: tomato;"></circle><circle r="4" class="s3 age-45" cx="771.6453229755682" cy="7.3894055232270395" style="fill: tomato;"></circle><circle r="4" class="s3 age-45" cx="820.4241739596358" cy="-22.6302650761201" style="fill: tomato;"></circle><circle r="4" class="s3 age-45" cx="790.9733917879672" cy="30.916130092079175" style="fill: tomato;"></circle><circle r="4" class="s3 age-45" cx="795.217948454961" cy="47.94117849736503" style="fill: tomato;"></circle><circle r="4" class="s3 age-45" cx="785.4758483430372" cy="50.10226149863388" style="fill: tomato;"></circle><circle r="4" class="s3 age-45" cx="836.8112760209253" cy="-11.158422739628662" style="fill: tomato;"></circle><circle r="4" class="s3 age-45" cx="863.0211970673914" cy="-14.220525269878943" style="fill: tomato;"></circle><circle r="4" class="s3 age-45" cx="803.6963620906142" cy="-33.69754274271259" style="fill: tomato;"></circle><circle r="4" class="s3 age-45" cx="855.4742297727306" cy="-29.82561546986256" style="fill: tomato;"></circle><circle r="4" class="s3 age-45" cx="822.1441112055884" cy="-52.403917894125996" style="fill: tomato;"></circle><circle r="4" class="s3 age-45" cx="850.2260208004076" cy="2.9418510549114556" style="fill: tomato;"></circle><circle r="4" class="s3 age-45" cx="817.3571382352937" cy="33.49163302693286" style="fill: tomato;"></circle><circle r="4" class="s3 age-45" cx="801.699677823678" cy="-4.685649519688185" style="fill: tomato;"></circle><circle r="4" class="s3 age-45" cx="784.276817913788" cy="19.154750264489916" style="fill: tomato;"></circle><circle r="4" class="s3 age-45" cx="821.5573624406569" cy="-42.461666909684006" style="fill: tomato;"></circle><circle r="4" class="s3 age-45" cx="798.0143951806725" cy="38.34327639587163" style="fill: tomato;"></circle><circle r="4" class="s3 age-45" cx="814.638421378218" cy="43.11496813612429" style="fill: tomato;"></circle><circle r="4" class="s3 age-45" cx="826.787247061226" cy="3.059090965751624" style="fill: tomato;"></circle><circle r="4" class="s3 age-45" cx="811.4459717382456" cy="-18.30042202061022" style="fill: tomato;"></circle><circle r="4" class="s3 age-45" cx="817.115643277458" cy="6.9685815637090505" style="fill: tomato;"></circle><circle r="4" class="s3 age-45" cx="793.3396498872854" cy="-25.894873090632753" style="fill: tomato;"></circle><circle r="4" class="s3 age-45" cx="805.8946632244173" cy="9.799927564668714" style="fill: tomato;"></circle><circle r="4" class="s3 age-45" cx="854.7855388412147" cy="-19.863324286375125" style="fill: tomato;"></circle><circle r="4" class="s3 age-45" cx="782.6026130247857" cy="-9.930849799807163" style="fill: tomato;"></circle><circle r="4" class="s3 age-45" cx="845.7981562037521" cy="-15.478470512979694" style="fill: tomato;"></circle><circle r="4" class="s3 age-45" cx="787.0505899106199" cy="-43.022596511564416" style="fill: tomato;"></circle><circle r="4" class="s3 age-45" cx="836.0110697157494" cy="-1.2061219649911317" style="fill: tomato;"></circle><circle r="4" class="s3 age-45" cx="820.9652708222104" cy="-32.47921113333427" style="fill: tomato;"></circle><circle r="4" class="s3 age-45" cx="832.3164160841296" cy="11.391452198157491" style="fill: tomato;"></circle><circle r="4" class="s3 age-45" cx="803.1053489239315" cy="-23.742871658019002" style="fill: tomato;"></circle><circle r="4" class="s3 age-45" cx="831.3742142274793" cy="47.62860982544059" style="fill: tomato;"></circle><circle r="4" class="s3 age-45" cx="819.6401087246502" cy="-12.674267400132496" style="fill: tomato;"></circle><circle r="4" class="s4 age-45" cx="1144.0856829601278" cy="41.76323549648589" style="fill: lime;"></circle><circle r="4" class="s4 age-45" cx="1198.3529563907812" cy="-25.79894695485967" style="fill: lime;"></circle><circle r="4" class="s4 age-45" cx="1196.2418864950203" cy="-42.83519527177333" style="fill: lime;"></circle><circle r="4" class="s4 age-45" cx="1209.6390855785196" cy="36.88146305868442" style="fill: lime;"></circle><circle r="4" class="s4 age-45" cx="1143.2759137408193" cy="-23.927372984844112" style="fill: lime;"></circle><circle r="4" class="s4 age-45" cx="1173.0931787112293" cy="1.3568932006423433" style="fill: lime;"></circle><circle r="4" class="s4 age-45" cx="1142.8888733409053" cy="-54.66048348948175" style="fill: lime;"></circle><circle r="4" class="s4 age-45" cx="1178.4136674968697" cy="53.49498414119125" style="fill: lime;"></circle><circle r="4" class="s4 age-45" cx="1225.8348333738506" cy="-22.806610061508593" style="fill: lime;"></circle><circle r="4" class="s4 age-45" cx="1204.4017361223894" cy="-48.37098884505345" style="fill: lime;"></circle><circle r="4" class="s4 age-45" cx="1219.4508137872003" cy="-61.16584310457074" style="fill: lime;"></circle><circle r="4" class="s4 age-45" cx="1193.6285251860352" cy="18.699374205585396" style="fill: lime;"></circle><circle r="4" class="s4 age-45" cx="1241.8152429651782" cy="-8.052409827145704" style="fill: lime;"></circle><circle r="4" class="s4 age-45" cx="1138.2151707376302" cy="-45.8331938629653" style="fill: lime;"></circle><circle r="4" class="s4 age-45" cx="1202.9929760463715" cy="1.1538311071126361" style="fill: lime;"></circle><circle r="4" class="s4 age-45" cx="1232.220809576688" cy="-5.353581585538701" style="fill: lime;"></circle><circle r="4" class="s4 age-45" cx="1245.641658344293" cy="9.39644113184961" style="fill: lime;"></circle><circle r="4" class="s4 age-45" cx="1248.5065290219695" cy="-0.6563684266233353" style="fill: lime;"></circle><circle r="4" class="s4 age-45" cx="1177.4688135211118" cy="10.14650589756235" style="fill: lime;"></circle><circle r="4" class="s4 age-45" cx="1169.2970753375391" cy="-67.91520341083303" style="fill: lime;"></circle><circle r="4" class="s4 age-45" cx="1169.7459674414085" cy="35.642291822961965" style="fill: lime;"></circle><circle r="4" class="s4 age-45" cx="1228.8301145875457" cy="31.47152888989895" style="fill: lime;"></circle><circle r="4" class="s4 age-45" cx="1235.5188898843044" cy="-25.543194415115835" style="fill: lime;"></circle><circle r="4" class="s4 age-45" cx="1188.076547411889" cy="70.93014143673875" style="fill: lime;"></circle><circle r="4" class="s4 age-45" cx="1140.1000997298563" cy="-14.45711898391565" style="fill: lime;"></circle><circle r="4" class="s4 age-45" cx="1222.7576671912611" cy="-51.74003718008132" style="fill: lime;"></circle><circle r="4" class="s4 age-45" cx="1156.7110378896955" cy="-9.259809188626315" style="fill: lime;"></circle><circle r="4" class="s4 age-45" cx="1151.5884703625848" cy="16.579531738975327" style="fill: lime;"></circle><circle r="4" class="s4 age-45" cx="1176.4245717013912" cy="-42.8286558788872" style="fill: lime;"></circle><circle r="4" class="s4 age-45" cx="1134.1528829660858" cy="40.7031590615772" style="fill: lime;"></circle><circle r="4" class="s4 age-45" cx="1207.591317491323" cy="-65.37088231772482" style="fill: lime;"></circle><circle r="4" class="s4 age-45" cx="1214.2334947913344" cy="-46.61142246374795" style="fill: lime;"></circle><circle r="4" class="s4 age-45" cx="1216.2181259097372" cy="-10.552098793773126" style="fill: lime;"></circle><circle r="4" class="s4 age-45" cx="1127.4571574199883" cy="-2.5649903379446997" style="fill: lime;"></circle><circle r="4" class="s4 age-45" cx="1163.216282117896" cy="-57.63156035197083" style="fill: lime;"></circle><circle r="4" class="s4 age-45" cx="1182.409392086407" cy="-33.8554754344832" style="fill: lime;"></circle><circle r="4" class="s4 age-45" cx="1130.621581057085" cy="-39.32537684301047" style="fill: lime;"></circle><circle r="4" class="s4 age-45" cx="1120.7011832749988" cy="-9.894482582695906" style="fill: lime;"></circle><circle r="4" class="s4 age-45" cx="1159.3627328916646" cy="-66.80715055975341" style="fill: lime;"></circle><circle r="4" class="s4 age-45" cx="1172.5766480102025" cy="-33.73712859516694" style="fill: lime;"></circle><circle r="4" class="s4 age-45" cx="1152.9687531048778" cy="-56.1136209249052" style="fill: lime;"></circle><circle r="4" class="s4 age-45" cx="1145.893939549493" cy="24.550852271238707" style="fill: lime;"></circle><circle r="4" class="s4 age-45" cx="1181.2504729445045" cy="-51.564285727721355" style="fill: lime;"></circle><circle r="4" class="s4 age-45" cx="1177.4876345951654" cy="70.46634147720539" style="fill: lime;"></circle><circle r="4" class="s4 age-45" cx="1198.8008748620036" cy="71.45098167453881" style="fill: lime;"></circle><circle r="4" class="s4 age-45" cx="1182.967642909703" cy="1.9418351504664473" style="fill: lime;"></circle><circle r="4" class="s4 age-45" cx="1136.7694897293195" cy="20.64297890231058" style="fill: lime;"></circle><circle r="4" class="s4 age-45" cx="1204.3963146244257" cy="45.80749907163853" style="fill: lime;"></circle><circle r="4" class="s4 age-45" cx="1183.1482234972893" cy="62.22834095507224" style="fill: lime;"></circle><circle r="4" class="s4 age-45" cx="1231.1385825319207" cy="-42.052640136532524" style="fill: lime;"></circle><circle r="4" class="s4 age-45" cx="1244.3166658077732" cy="-19.708997606664784" style="fill: lime;"></circle><circle r="4" class="s4 age-45" cx="1155.490095858779" cy="-39.255904355685956" style="fill: lime;"></circle><circle r="4" class="s4 age-45" cx="1178.6516603723078" cy="-24.670084258283485" style="fill: lime;"></circle><circle r="4" class="s4 age-45" cx="1204.255884566295" cy="63.077132072858674" style="fill: lime;"></circle><circle r="4" class="s4 age-45" cx="1163.2028297232293" cy="0.7689333907980885" style="fill: lime;"></circle><circle r="4" class="s4 age-45" cx="1188.5086511502304" cy="-71.21911385420465" style="fill: lime;"></circle><circle r="4" class="s4 age-45" cx="1164.0557120886904" cy="43.731881389149" style="fill: lime;"></circle><circle r="4" class="s4 age-45" cx="1223.7522837126137" cy="42.27419999580337" style="fill: lime;"></circle><circle r="4" class="s4 age-45" cx="1221.4440118940238" cy="-39.67386457151699" style="fill: lime;"></circle><circle r="4" class="s4 age-45" cx="1193.8728386918774" cy="62.790641786967264" style="fill: lime;"></circle><circle r="4" class="s4 age-45" cx="1148.15895543636" cy="50.86755034482305" style="fill: lime;"></circle><circle r="4" class="s4 age-45" cx="1190.730000148278" cy="-61.44395255564128" style="fill: lime;"></circle><circle r="4" class="s4 age-45" cx="1214.3402089891258" cy="45.641884559021406" style="fill: lime;"></circle><circle r="4" class="s4 age-45" cx="1136.892974734442" cy="-31.532040796480246" style="fill: lime;"></circle><circle r="4" class="s4 age-45" cx="1179.6495869453909" cy="36.54135708341557" style="fill: lime;"></circle><circle r="4" class="s4 age-45" cx="1172.7413539528704" cy="61.68567891698188" style="fill: lime;"></circle><circle r="4" class="s4 age-45" cx="1150.7319405063608" cy="-30.507769467395395" style="fill: lime;"></circle><circle r="4" class="s4 age-45" cx="1228.3785909164776" cy="-32.462532318020166" style="fill: lime;"></circle><circle r="4" class="s4 age-45" cx="1147.2641870389068" cy="-64.26733590791062" style="fill: lime;"></circle><circle r="4" class="s4 age-45" cx="1211.8901867797588" cy="-36.98413921502176" style="fill: lime;"></circle><circle r="4" class="s4 age-45" cx="1229.2324324518959" cy="4.252665421823958" style="fill: lime;"></circle><circle r="4" class="s4 age-45" cx="1166.9599944163754" cy="69.83607031009628" style="fill: lime;"></circle><circle r="4" class="s4 age-45" cx="1122.881925646227" cy="6.286756241099338" style="fill: lime;"></circle><circle r="4" class="s4 age-45" cx="1233.5254794206287" cy="40.25978951047373" style="fill: lime;"></circle><circle r="4" class="s4 age-45" cx="1232.9474352969346" cy="21.102897251382092" style="fill: lime;"></circle><circle r="4" class="s4 age-45" cx="1228.699506848787" cy="50.91505086386987" style="fill: lime;"></circle><circle r="4" class="s4 age-45" cx="1140.005142756871" cy="32.66666925454715" style="fill: lime;"></circle><circle r="4" class="s4 age-45" cx="1156.604526799483" cy="68.98571968063402" style="fill: lime;"></circle><circle r="4" class="s4 age-45" cx="1204.463251511987" cy="28.429228201366367" style="fill: lime;"></circle><circle r="4" class="s4 age-45" cx="1219.305909375319" cy="54.324947817609434" style="fill: lime;"></circle><circle r="4" class="s4 age-45" cx="1219.0556462712386" cy="33.54441668800845" style="fill: lime;"></circle><circle r="4" class="s4 age-45" cx="1223.311283899202" cy="23.22077533752352" style="fill: lime;"></circle><circle r="4" class="s4 age-45" cx="1162.465292823859" cy="60.9311983072191" style="fill: lime;"></circle><circle r="4" class="s4 age-45" cx="1124.9752006184472" cy="36.74007113746948" style="fill: lime;"></circle><circle r="4" class="s4 age-45" cx="1161.8441901585607" cy="17.74559407534357" style="fill: lime;"></circle><circle r="4" class="s4 age-45" cx="1152.372553029651" cy="59.92674261030414" style="fill: lime;"></circle><circle r="4" class="s4 age-45" cx="1199.3231941761858" cy="54.4057728188735" style="fill: lime;"></circle><circle r="4" class="s4 age-45" cx="1199.6490196576349" cy="37.160677183832966" style="fill: lime;"></circle><circle r="4" class="s4 age-45" cx="1199.7846067768003" cy="-57.22163429588108" style="fill: lime;"></circle><circle r="4" class="s4 age-45" cx="1214.314535368306" cy="63.07340694557845" style="fill: lime;"></circle><circle r="4" class="s4 age-45" cx="1205.2550207722134" cy="-75.08429627120456" style="fill: lime;"></circle><circle r="4" class="s4 age-45" cx="1213.494199471015" cy="25.26674850670218" style="fill: lime;"></circle><circle r="4" class="s4 age-45" cx="1149.8668379043258" cy="33.708123385882" style="fill: lime;"></circle><circle r="4" class="s4 age-45" cx="1158.255996612702" cy="51.85282781369631" style="fill: lime;"></circle><circle r="4" class="s4 age-45" cx="1185.069426642643" cy="28.272798721659647" style="fill: lime;"></circle><circle r="4" class="s4 age-45" cx="1193.0169910651289" cy="1.9233089689010958" style="fill: lime;"></circle><circle r="4" class="s4 age-45" cx="1173.1358350594824" cy="-58.741164354042496" style="fill: lime;"></circle><circle r="4" class="s4 age-45" cx="1188.977008324339" cy="54.127910856519286" style="fill: lime;"></circle><circle r="4" class="s4 age-45" cx="1235.3076858389916" cy="-15.574615833121939" style="fill: lime;"></circle><circle r="4" class="s4 age-45" cx="1184.1637098789583" cy="45.368935352623005" style="fill: lime;"></circle><circle r="4" class="s4 age-45" cx="1209.2971000545867" cy="54.423242657793665" style="fill: lime;"></circle><circle r="4" class="s4 age-45" cx="1194.4237843948542" cy="45.748332108064574" style="fill: lime;"></circle><circle r="4" class="s4 age-45" cx="1159.2852083998275" cy="-48.48331853330457" style="fill: lime;"></circle><circle r="4" class="s4 age-45" cx="1130.8664733951205" cy="28.661566115921392" style="fill: lime;"></circle><circle r="4" class="s4 age-45" cx="1204.3470580627393" cy="18.391437781702905" style="fill: lime;"></circle><circle r="4" class="s4 age-45" cx="1188.047099750891" cy="10.523110648737731" style="fill: lime;"></circle><circle r="4" class="s4 age-45" cx="1238.584824820256" cy="29.31843857109847" style="fill: lime;"></circle><circle r="4" class="s4 age-45" cx="1218.7938363223104" cy="-29.85163450731055" style="fill: lime;"></circle><circle r="4" class="s4 age-45" cx="1215.6773271963489" cy="-20.32343343728306" style="fill: tomato;"></circle><circle r="4" class="s4 age-45" cx="1238.910281392262" cy="2.002792026716659" style="fill: tomato;"></circle><circle r="4" class="s4 age-45" cx="1127.0923361089929" cy="-29.547439124791033" style="fill: tomato;"></circle><circle r="4" class="s4 age-45" cx="1177.4991402424607" cy="-73.62809611273323" style="fill: tomato;"></circle><circle r="4" class="s4 age-45" cx="1143.8341697376663" cy="2.6469443060829865" style="fill: tomato;"></circle><circle r="4" class="s4 age-45" cx="1165.4518243808611" cy="-40.62014078561209" style="fill: tomato;"></circle><circle r="4" class="s4 age-45" cx="1188.5323250663187" cy="-24.569043972898466" style="fill: tomato;"></circle><circle r="4" class="s4 age-45" cx="1204.8382053845685" cy="-18.324879419774142" style="fill: tomato;"></circle><circle r="4" class="s4 age-45" cx="1226.181799706975" cy="13.729824801049103" style="fill: tomato;"></circle><circle r="4" class="s4 age-45" cx="1208.6311870624488" cy="9.344688014807357" style="fill: tomato;"></circle><circle r="4" class="s4 age-45" cx="1183.6616409607439" cy="-15.927102781539684" style="fill: tomato;"></circle><circle r="4" class="s4 age-45" cx="1182.351969058348" cy="18.742932525639244" style="fill: tomato;"></circle><circle r="4" class="s4 age-45" cx="1169.2960824682468" cy="-49.707678945581534" style="fill: tomato;"></circle><circle r="4" class="s4 age-45" cx="1181.2866946659487" cy="-64.37313470831715" style="fill: tomato;"></circle><circle r="4" class="s4 age-45" cx="1149.1381894877536" cy="-46.906316879102846" style="fill: tomato;"></circle><circle r="4" class="s4 age-45" cx="1168.203016277781" cy="52.78672059700839" style="fill: tomato;"></circle><circle r="4" class="s4 age-45" cx="1198.0314413483534" cy="-68.16910319286445" style="fill: tomato;"></circle><circle r="4" class="s4 age-45" cx="1168.8226921334995" cy="-24.637035234077562" style="fill: tomato;"></circle><circle r="4" class="s4 age-45" cx="1159.8057764337111" cy="34.80115911369332" style="fill: tomato;"></circle><circle r="4" class="s4 age-45" cx="1138.231864073941" cy="49.81457080918407" style="fill: tomato;"></circle><circle r="4" class="s4 age-45" cx="1165.5399573684047" cy="26.733559432731308" style="fill: tomato;"></circle><circle r="4" class="s4 age-45" cx="1157.0228900705483" cy="-23.041808731531223" style="fill: tomato;"></circle><circle r="4" class="s4 age-45" cx="1232.7234919809498" cy="-51.8996439326251" style="fill: tomato;"></circle><circle r="4" class="s4 age-45" cx="1202.1768735416492" cy="-34.94777446498183" style="fill: tomato;"></circle><circle r="4" class="s4 age-45" cx="1235.9191026042752" cy="11.573871293770189" style="fill: tomato;"></circle><circle r="4" class="s4 age-45" cx="1168.348610445189" cy="-7.261349364580022" style="fill: tomato;"></circle><circle r="4" class="s4 age-45" cx="1191.517017490965" cy="-51.53555173462833" style="fill: tomato;"></circle><circle r="4" class="s4 age-45" cx="1173.989095357036" cy="44.630662503977604" style="fill: tomato;"></circle><circle r="4" class="s4 age-45" cx="1222.5242782460239" cy="-3.1139326890306624" style="fill: tomato;"></circle><circle r="4" class="s4 age-45" cx="1242.674351346887" cy="18.947243273212724" style="fill: tomato;"></circle><circle r="4" class="s4 age-45" cx="1216.3214736596747" cy="15.79117972257707" style="fill: tomato;"></circle><circle r="4" class="s4 age-45" cx="1212.7500438092743" cy="-0.8419850919238844" style="fill: tomato;"></circle><circle r="4" class="s4 age-45" cx="1142.5070172742896" cy="12.518843714784687" style="fill: tomato;"></circle><circle r="4" class="s4 age-45" cx="1194.4733021634145" cy="-16.59090750553368" style="fill: tomato;"></circle><circle r="4" class="s4 age-45" cx="1146.7048261408966" cy="-7.0742711332013375" style="fill: tomato;"></circle><circle r="4" class="s4 age-45" cx="1133.52168448866" cy="-21.882294073308866" style="fill: tomato;"></circle><circle r="4" class="s4 age-45" cx="1186.3719337324428" cy="-42.960705329874564" style="fill: tomato;"></circle><circle r="4" class="s4 age-45" cx="1129.6263932631311" cy="13.683635406732838" style="fill: tomato;"></circle><circle r="4" class="s4 age-45" cx="1155.7449789671248" cy="25.615397137639363" style="fill: tomato;"></circle><circle r="4" class="s4 age-45" cx="1171.831875276664" cy="18.425771955295204" style="fill: tomato;"></circle><circle r="4" class="s4 age-45" cx="1173.7167277936176" cy="-16.02480474183686" style="fill: tomato;"></circle><circle r="4" class="s4 age-45" cx="1219.53196477908" cy="6.37029696697404" style="fill: tomato;"></circle><circle r="4" class="s4 age-45" cx="1210.8986833423726" cy="-55.97891673758265" style="fill: tomato;"></circle><circle r="4" class="s4 age-45" cx="1178.005334636548" cy="-7.152268702977435" style="fill: tomato;"></circle><circle r="4" class="s4 age-45" cx="1130.4414026191446" cy="-12.131000857472818" style="fill: tomato;"></circle><circle r="4" class="s4 age-45" cx="1167.5970173500834" cy="9.51639287509506" style="fill: tomato;"></circle><circle r="4" class="s4 age-45" cx="1189.62425163033" cy="36.99061254636048" style="fill: tomato;"></circle><circle r="4" class="s4 age-45" cx="1198.6776224720688" cy="10.14874293923115" style="fill: tomato;"></circle><circle r="4" class="s4 age-45" cx="1134.17097770012" cy="4.815372077397972" style="fill: tomato;"></circle><circle r="4" class="s4 age-45" cx="1144.4187656314468" cy="-38.090061182817266" style="fill: tomato;"></circle><circle r="4" class="s4 age-45" cx="1153.4269894506704" cy="-0.027181022769544174" style="fill: tomato;"></circle><circle r="4" class="s4 age-45" cx="1175.5163799828351" cy="27.602057565963104" style="fill: tomato;"></circle><circle r="4" class="s4 age-45" cx="1197.3658855860567" cy="-6.9689959263024095" style="fill: tomato;"></circle><circle r="4" class="s4 age-45" cx="1154.0121969671475" cy="42.82550533533548" style="fill: tomato;"></circle><circle r="4" class="s4 age-45" cx="1208.721401530206" cy="-27.442636615363334" style="fill: tomato;"></circle><circle r="4" class="s4 age-45" cx="1157.6980515696573" cy="9.014829842996766" style="fill: tomato;"></circle><circle r="4" class="s4 age-45" cx="1123.7014674523812" cy="21.68979589181219" style="fill: tomato;"></circle><circle r="4" class="s4 age-45" cx="1187.6765085629186" cy="-6.784844227019134" style="fill: tomato;"></circle><circle r="4" class="s4 age-45" cx="1137.1335528897037" cy="-4.735708357726783" style="fill: tomato;"></circle><circle r="4" class="s4 age-45" cx="1123.7874397075254" cy="-19.553419805957898" style="fill: tomato;"></circle><circle r="4" class="s4 age-45" cx="1206.9003112290966" cy="-8.647748239259801" style="fill: tomato;"></circle><circle r="4" class="s4 age-45" cx="1163.757298879469" cy="-16.073308064766945" style="fill: tomato;"></circle><circle r="4" class="s4 age-45" cx="1161.7677003054937" cy="-31.63337346652275" style="fill: tomato;"></circle><circle r="4" class="s4 age-45" cx="1225.6807403557864" cy="-12.868712841117357" style="fill: tomato;"></circle><circle r="4" class="s4 age-45" cx="1192.2838559260433" cy="-33.737094130580005" style="fill: tomato;"></circle><circle r="4" class="s4 age-45" cx="1149.7761804574384" cy="-16.471551490177127" style="fill: tomato;"></circle><circle r="4" class="s4 age-45" cx="1194.8785549919066" cy="28.48224652688318" style="fill: tomato;"></circle><circle r="4" class="s5 age-undefined" cx="1541.8797701777569" cy="-2.7798437730899295" style="fill: lime;"></circle><circle r="4" class="s5 age-undefined" cx="1558.9693839274726" cy="-5.477201503889881" style="fill: lime;"></circle><circle r="4" class="s5 age-undefined" cx="1562.0869270348344" cy="14.256227347470235" style="fill: lime;"></circle><circle r="4" class="s5 age-undefined" cx="1572.9601554322053" cy="-27.91944823065953" style="fill: lime;"></circle><circle r="4" class="s5 age-undefined" cx="1589.0195919961463" cy="13.303006175121398" style="fill: lime;"></circle><circle r="4" class="s5 age-undefined" cx="1534.1057036894806" cy="3.5055275797885757" style="fill: lime;"></circle><circle r="4" class="s5 age-undefined" cx="1582.7994421068618" cy="-26.185210571735578" style="fill: lime;"></circle><circle r="4" class="s5 age-undefined" cx="1563.6512940347445" cy="24.122944027902495" style="fill: lime;"></circle><circle r="4" class="s5 age-undefined" cx="1540.3107878991505" cy="-12.638539360970475" style="fill: lime;"></circle><circle r="4" class="s5 age-undefined" cx="1577.618191864927" cy="1.674279381371255" style="fill: lime;"></circle><circle r="4" class="s5 age-undefined" cx="1543.4251681843361" cy="7.09267324208572" style="fill: lime;"></circle><circle r="4" class="s5 age-undefined" cx="1565.1809023902078" cy="-21.635938159787653" style="fill: lime;"></circle><circle r="4" class="s5 age-undefined" cx="1572.98202547604" cy="27.70122828400661" style="fill: lime;"></circle><circle r="4" class="s5 age-undefined" cx="1585.8902701609395" cy="-6.432528692744859" style="fill: lime;"></circle><circle r="4" class="s5 age-undefined" cx="1574.4883982565211" cy="-18.06309342297878" style="fill: lime;"></circle><circle r="4" class="s5 age-undefined" cx="1544.9865363584488" cy="16.966700891136288" style="fill: lime;"></circle><circle r="4" class="s5 age-undefined" cx="1548.0824079747213" cy="-18.927266372681235" style="fill: lime;"></circle><circle r="4" class="s5 age-undefined" cx="1552.7611190893656" cy="10.685867779293561" style="fill: lime;"></circle><circle r="4" class="s5 age-undefined" cx="1595.216523002934" cy="-2.8501911063173004" style="fill: lime;"></circle><circle r="4" class="s5 age-undefined" cx="1563.6353299694981" cy="-31.4963685158085" style="fill: lime;"></circle><circle r="4" class="s5 age-undefined" cx="1565.228152101844" cy="34.00045250291629" style="fill: tomato;"></circle><circle r="4" class="s5 age-undefined" cx="1557.410307425461" cy="-15.347225292602719" style="fill: tomato;"></circle><circle r="4" class="s5 age-undefined" cx="1576.0707928320562" cy="-8.180739616997966" style="fill: tomato;"></circle><circle r="4" class="s5 age-undefined" cx="1554.32972970645" cy="20.54820339675576" style="fill: tomato;"></circle><circle r="4" class="s5 age-undefined" cx="1546.5242120078883" cy="-28.804864982951052" style="fill: tomato;"></circle><circle r="4" class="s5 age-undefined" cx="1590.5808449432425" cy="23.1727937558429" style="fill: tomato;"></circle><circle r="4" class="s5 age-undefined" cx="1551.1990877914386" cy="0.81120991669355" style="fill: tomato;"></circle><circle r="4" class="s5 age-undefined" cx="1584.3265580469479" cy="-16.30684775183958" style="fill: tomato;"></circle><circle r="4" class="s5 age-undefined" cx="1546.5569569326126" cy="26.84464722522544" style="fill: tomato;"></circle><circle r="4" class="s5 age-undefined" cx="1555.86027999034" cy="-25.213856868353023" style="fill: tomato;"></circle><circle r="4" class="s5 age-undefined" cx="1587.444545739654" cy="3.4404413032754815" style="fill: tomato;"></circle><circle r="4" class="s5 age-undefined" cx="1571.4061804510316" cy="17.834288425960658" style="fill: tomato;"></circle><circle r="4" class="s5 age-undefined" cx="1562.074436379432" cy="-41.378131683346375" style="fill: tomato;"></circle><circle r="4" class="s5 age-undefined" cx="1582.3224121416208" cy="31.271227235400364" style="fill: tomato;"></circle><circle r="4" class="s5 age-undefined" cx="1568.2909654140124" cy="-1.905923600920116" style="fill: tomato;"></circle><circle r="4" class="s5 age-undefined" cx="1593.6621436564726" cy="-12.722598734706724" style="fill: tomato;"></circle><circle r="4" class="s5 age-undefined" cx="1560.518586319954" cy="4.391037724422015" style="fill: tomato;"></circle><circle r="4" class="s5 age-undefined" cx="1538.7578447309286" cy="-22.51883749631702" style="fill: tomato;"></circle><circle r="4" class="s5 age-undefined" cx="1579.1888302343477" cy="11.530118874812377" style="fill: tomato;"></circle><circle r="4" class="s5 age-undefined" cx="1569.849407281285" cy="7.967135482682462" style="fill: tomato;"></circle><circle r="4" class="s5 age-undefined" cx="1571.4057321548364" cy="-37.7863597668568" style="fill: tomato;"></circle><circle r="4" class="s5 age-undefined" cx="1555.8925711004563" cy="30.428821898037807" style="fill: tomato;"></circle><circle r="4" class="s5 age-undefined" cx="1566.7263426752415" cy="-11.7683037647845" style="fill: tomato;"></circle><circle r="4" class="s5 age-undefined" cx="1549.6450817029433" cy="-9.061559384986564" style="fill: tomato;"></circle><circle r="4" class="s5 age-undefined" cx="1580.7482945255176" cy="21.40405396390774" style="fill: tomato;"></circle><circle r="4" class="s5 age-undefined" cx="1554.3003158938218" cy="-35.090112542548" style="fill: tomato;"></circle></g>
    </svg>