<svg width="2200" height="400">
      <g transform="translate(50, 200)"><circle r="4" class="s1 age-55" cx="9.031242122308484" cy="-1.2128039775902386" style="fill: lime;"></circle><circle r="4" class="s1 age-55" cx="18.990900600783313" cy="-0.3243671532847999" style="fill: lime;"></circle><circle r="4" class="s1 age-55" cx="24.742657103735233" cy="-8.504173433394083" style="fill: lime;"></circle><circle r="4" class="s1 age-55" cx="23.204279812310876" cy="8.74579489036603" style="fill: lime;"></circle><circle r="4" class="s1 age-55" cx="13.24284382562296" cy="7.857056481003808" style="fill: tomato;"></circle><circle r="4" class="s1 age-55" cx="28.952126827504546" cy="0.5654268571179223" style="fill: tomato;"></circle><circle r="4" class="s1 age-55" cx="17.45378172171366" cy="16.92722748180458" style="fill: tomato;"></circle><circle r="4" class="s1 age-55" cx="14.782792381265182" cy="-9.39330174281089" style="fill: tomato;"></circle><circle r="4" class="s2 age-55" cx="410.8252780607538" cy="0.33820697670889016" style="fill: lime;"></circle><circle r="4" class="s2 age-55" cx="417.754257046861" cy="-6.8624161096163085" style="fill: lime;"></circle><circle r="4" class="s2 age-55" cx="406.6643076884129" cy="17.142253970509785" style="fill: lime;"></circle><circle r="4" class="s2 age-55" cx="434.61952261068046" cy="-12.97601894222949" style="fill: lime;"></circle><circle r="4" class="s2 age-55" cx="426.0676669481688" cy="21.943923245109907" style="fill: lime;"></circle><circle r="4" class="s2 age-55" cx="423.29880976460714" cy="12.343519438467332" style="fill: lime;"></circle><circle r="4" class="s2 age-55" cx="440.1538136872333" cy="6.2259118294199105" style="fill: lime;"></circle><circle r="4" class="s2 age-55" cx="431.8621129660722" cy="-22.57772003073733" style="fill: lime;"></circle><circle r="4" class="s2 age-55" cx="447.0902601995729" cy="-0.9777333126356796" style="fill: lime;"></circle><circle r="4" class="s2 age-55" cx="441.561751536109" cy="-20.193205893237845" style="fill: lime;"></circle><circle r="4" class="s2 age-55" cx="403.8941485329955" cy="7.538990832628196" style="fill: lime;"></circle><circle r="4" class="s2 age-55" cx="435.766845343776" cy="24.338699456011724" style="fill: tomato;"></circle><circle r="4" class="s2 age-55" cx="405.28397870611207" cy="-18.8697377989515" style="fill: tomato;"></circle><circle r="4" class="s2 age-55" cx="421.93209254160104" cy="-23.667916965534026" style="fill: tomato;"></circle><circle r="4" class="s2 age-55" cx="419.1403819060267" cy="29.148054991748907" style="fill: tomato;"></circle><circle r="4" class="s2 age-55" cx="444.32139471719586" cy="-10.5823279091414" style="fill: tomato;"></circle><circle r="4" class="s2 age-55" cx="428.84404499750553" cy="31.547022129106043" style="fill: tomato;"></circle><circle r="4" class="s2 age-55" cx="412.22134762429727" cy="-26.068346589492105" style="fill: tomato;"></circle><circle r="4" class="s2 age-55" cx="424.6904827476621" cy="-14.067917969963064" style="fill: tomato;"></circle><circle r="4" class="s2 age-55" cx="445.7070671453065" cy="25.42529268973111" style="fill: tomato;"></circle><circle r="4" class="s2 age-55" cx="408.0593488003142" cy="-9.262016644631437" style="fill: tomato;"></circle><circle r="4" class="s2 age-55" cx="419.15660556311724" cy="-33.26903845075483" style="fill: tomato;"></circle><circle r="4" class="s2 age-55" cx="427.4523434966147" cy="-4.476195712750491" style="fill: tomato;"></circle><circle r="4" class="s2 age-55" cx="409.43390973350364" cy="26.746020431950775" style="fill: tomato;"></circle><circle r="4" class="s2 age-55" cx="401.1226524337791" cy="-2.0652664960622213" style="fill: tomato;"></circle><circle r="4" class="s2 age-55" cx="413.59683672597754" cy="9.936293210174426" style="fill: tomato;"></circle><circle r="4" class="s2 age-55" cx="442.9278108533738" cy="15.824436525670045" style="fill: tomato;"></circle><circle r="4" class="s2 age-55" cx="429.0979530432575" cy="-32.187560202227345" style="fill: tomato;"></circle><circle r="4" class="s2 age-55" cx="437.393231903234" cy="-3.3802453712389178" style="fill: tomato;"></circle><circle r="4" class="s2 age-55" cx="430.2260452065193" cy="5.13359996251553" style="fill: tomato;"></circle><circle r="4" class="s2 age-55" cx="420.5228884409321" cy="2.7317709986004695" style="fill: tomato;"></circle><circle r="4" class="s2 age-55" cx="432.99224646112066" cy="14.739159785834932" style="fill: tomato;"></circle><circle r="4" class="s2 age-55" cx="416.36736193679036" cy="19.542985958988403" style="fill: tomato;"></circle><circle r="4" class="s2 age-55" cx="449.8577501957239" cy="8.621873179071137" style="fill: tomato;"></circle><circle r="4" class="s2 age-55" cx="414.98932702278734" cy="-16.465505203826527" style="fill: tomato;"></circle><circle r="4" class="s3 age-55" cx="797.0545088221148" cy="-29.378350961352368" style="fill: lime;"></circle><circle r="4" class="s3 age-55" cx="808.4255703447906" cy="3.241592680492542" style="fill: lime;"></circle><circle r="4" class="s3 age-55" cx="778.2463810772381" cy="-23.02362645801962" style="fill: lime;"></circle><circle r="4" class="s3 age-55" cx="783.9446794710108" cy="-6.658958450476423" style="fill: lime;"></circle><circle r="4" class="s3 age-55" cx="829.1061778752552" cy="-13.094874143654566" style="fill: lime;"></circle><circle r="4" class="s3 age-55" cx="817.662593102767" cy="45.70202677377034" style="fill: lime;"></circle><circle r="4" class="s3 age-55" cx="772.5770369857706" cy="6.316799310511759" style="fill: lime;"></circle><circle r="4" class="s3 age-55" cx="834.7863405545983" cy="3.23052174911129" style="fill: lime;"></circle><circle r="4" class="s3 age-55" cx="819.7354764875332" cy="-9.82568794959807" style="fill: lime;"></circle><circle r="4" class="s3 age-55" cx="848.658283947068" cy="-31.936213667814208" style="fill: lime;"></circle><circle r="4" class="s3 age-55" cx="789.3339708651703" cy="-45.9061086767737" style="fill: lime;"></circle><circle r="4" class="s3 age-55" cx="810.1597941563467" cy="39.166025460062606" style="fill: lime;"></circle><circle r="4" class="s3 age-55" cx="795.2435063732061" cy="-19.662561285162536" style="fill: lime;"></circle><circle r="4" class="s3 age-55" cx="842.430069807536" cy="-49.34387759217548" style="fill: lime;"></circle><circle r="4" class="s3 age-55" cx="763.1289143522871" cy="9.509099670925286" style="fill: lime;"></circle><circle r="4" class="s3 age-55" cx="795.1217967826997" cy="26.03353220379282" style="fill: lime;"></circle><circle r="4" class="s3 age-55" cx="789.3042205060303" cy="55.42008949474015" style="fill: lime;"></circle><circle r="4" class="s3 age-55" cx="824.4856320305905" cy="-40.642731440730024" style="fill: lime;"></circle><circle r="4" class="s3 age-55" cx="851.9584776308659" cy="12.12492390379881" style="fill: lime;"></circle><circle r="4" class="s3 age-55" cx="768.7813517798593" cy="-19.918076996313243" style="fill: lime;"></circle><circle r="4" class="s3 age-55" cx="862.9477617057341" cy="-4.507896548437603" style="fill: lime;"></circle><circle r="4" class="s3 age-55" cx="837.8620331372433" cy="-17.747663719363747" style="fill: lime;"></circle><circle r="4" class="s3 age-55" cx="770.6415647367952" cy="16.07200869345291" style="fill: lime;"></circle><circle r="4" class="s3 age-55" cx="841.2509745512162" cy="-38.62010513167828" style="fill: lime;"></circle><circle r="4" class="s3 age-55" cx="765.058295137226" cy="-0.2716584015901965" style="fill: lime;"></circle><circle r="4" class="s3 age-55" cx="806.3004513611676" cy="58.76163130373774" style="fill: lime;"></circle><circle r="4" class="s3 age-55" cx="845.3835496400151" cy="-11.328275022900248" style="fill: lime;"></circle><circle r="4" class="s3 age-55" cx="833.4907987155369" cy="-44.91526317925903" style="fill: lime;"></circle><circle r="4" class="s3 age-55" cx="827.2509718911645" cy="-3.2973169405367333" style="fill: lime;"></circle><circle r="4" class="s3 age-55" cx="787.7142707390512" cy="-26.18007724557206" style="fill: lime;"></circle><circle r="4" class="s3 age-55" cx="834.2358602243243" cy="-55.06478927499905" style="fill: lime;"></circle><circle r="4" class="s3 age-55" cx="806.8869481976718" cy="-42.64895659732327" style="fill: lime;"></circle><circle r="4" class="s3 age-55" cx="802.7588352658731" cy="-13.09392100024024" style="fill: lime;"></circle><circle r="4" class="s3 age-55" cx="817.4220366628718" cy="-56.8678230073334" style="fill: lime;"></circle><circle r="4" class="s3 age-55" cx="777.8878002857084" cy="-32.98290651624028" style="fill: lime;"></circle><circle r="4" class="s3 age-55" cx="790.6170777400384" cy="-55.799691439164164" style="fill: lime;"></circle><circle r="4" class="s3 age-55" cx="850.1927300757015" cy="-43.054335814815424" style="fill: lime;"></circle><circle r="4" class="s3 age-55" cx="768.6989451918872" cy="25.889511278267737" style="fill: lime;"></circle><circle r="4" class="s3 age-55" cx="839.6841287122377" cy="-27.668859182817876" style="fill: lime;"></circle><circle r="4" class="s3 age-55" cx="814.0507619209844" cy="-26.21995999190804" style="fill: lime;"></circle><circle r="4" class="s3 age-55" cx="806.3340420169031" cy="-32.64364085219267" style="fill: lime;"></circle><circle r="4" class="s3 age-55" cx="797.0470915234074" cy="16.267754472021483" style="fill: lime;"></circle><circle r="4" class="s3 age-55" cx="761.1898983944325" cy="19.310356056451194" style="fill: lime;"></circle><circle r="4" class="s3 age-55" cx="834.1136818262497" cy="56.759069125273236" style="fill: lime;"></circle><circle r="4" class="s3 age-55" cx="798.7696032897242" cy="52.1982159188863" style="fill: lime;"></circle><circle r="4" class="s3 age-55" cx="804.6266576255922" cy="-22.86073080866202" style="fill: lime;"></circle><circle r="4" class="s3 age-55" cx="845.8061261499452" cy="48.58871482541595" style="fill: lime;"></circle><circle r="4" class="s3 age-55" cx="778.1409159365916" cy="22.66487805239564" style="fill: lime;"></circle><circle r="4" class="s3 age-55" cx="774.5249742171844" cy="-3.443751126085229" style="fill: lime;"></circle><circle r="4" class="s3 age-55" cx="864.7862131314663" cy="-14.32132375247168" style="fill: lime;"></circle><circle r="4" class="s3 age-55" cx="856.2523624202265" cy="-25.46657957618291" style="fill: lime;"></circle><circle r="4" class="s3 age-55" cx="780.0912008791036" cy="12.899912282930373" style="fill: lime;"></circle><circle r="4" class="s3 age-55" cx="821.5474437051048" cy="-19.60449726695431" style="fill: lime;"></circle><circle r="4" class="s3 age-55" cx="800.094698287832" cy="-58.98851633009183" style="fill: lime;"></circle><circle r="4" class="s3 age-55" cx="779.8531857064752" cy="-42.789483363597284" style="fill: lime;"></circle><circle r="4" class="s3 age-55" cx="823.7304916550163" cy="62.11033255620254" style="fill: lime;"></circle><circle r="4" class="s3 age-55" cx="854.804840318611" cy="-14.667180894035727" style="fill: lime;"></circle><circle r="4" class="s3 age-55" cx="791.2561591138914" cy="45.633227323102155" style="fill: tomato;"></circle><circle r="4" class="s3 age-55" cx="783.7589899459351" cy="39.045157333833124" style="fill: tomato;"></circle><circle r="4" class="s3 age-55" cx="852.9733905151542" cy="-4.880633847899277" style="fill: tomato;"></circle><circle r="4" class="s3 age-55" cx="809.354131360963" cy="-62.76989153590141" style="fill: tomato;"></circle><circle r="4" class="s3 age-55" cx="782.0055148559892" cy="3.099734261813221" style="fill: tomato;"></circle><circle r="4" class="s3 age-55" cx="791.4368145566137" cy="-0.0746235439841539" style="fill: tomato;"></circle><circle r="4" class="s3 age-55" cx="825.3772815749563" cy="6.496920412266949" style="fill: tomato;"></circle><circle r="4" class="s3 age-55" cx="787.3815622724471" cy="-36.13732066473575" style="fill: tomato;"></circle><circle r="4" class="s3 age-55" cx="861.9102129179215" cy="12.983295878870205" style="fill: tomato;"></circle><circle r="4" class="s3 age-55" cx="838.8104790707708" cy="29.456648394834126" style="fill: tomato;"></circle><circle r="4" class="s3 age-55" cx="799.0001504531151" cy="6.478414957266523" style="fill: tomato;"></circle><circle r="4" class="s3 age-55" cx="766.8848973934519" cy="-10.101884657371258" style="fill: tomato;"></circle><circle r="4" class="s3 age-55" cx="847.2240114282307" cy="-21.18591436176589" style="fill: tomato;"></circle><circle r="4" class="s3 age-55" cx="825.3014706973588" cy="-50.638187824218775" style="fill: tomato;"></circle><circle r="4" class="s3 age-55" cx="835.969372784629" cy="46.96010864311643" style="fill: tomato;"></circle><circle r="4" class="s3 age-55" cx="842.2884588765392" cy="9.760960214795459" style="fill: tomato;"></circle><circle r="4" class="s3 age-55" cx="816.0353850190486" cy="-46.99527110166689" style="fill: tomato;"></circle><circle r="4" class="s3 age-55" cx="858.7590611307734" cy="32.705490239803275" style="fill: tomato;"></circle><circle r="4" class="s3 age-55" cx="844.2272098654548" cy="-0.0314646434882216" style="fill: tomato;"></circle><circle r="4" class="s3 age-55" cx="852.3851658563451" cy="41.07760832731482" style="fill: tomato;"></circle><circle r="4" class="s3 age-55" cx="866.1547667215694" cy="-24.225781425869954" style="fill: tomato;"></circle><circle r="4" class="s3 age-55" cx="825.1952535526026" cy="52.22912929126888" style="fill: tomato;"></circle><circle r="4" class="s3 age-55" cx="810.3237278315928" cy="-6.545120056749459" style="fill: tomato;"></circle><circle r="4" class="s3 age-55" cx="830.4091352085009" cy="-24.183746496301946" style="fill: tomato;"></circle><circle r="4" class="s3 age-55" cx="815.7553804912819" cy="55.50472926637164" style="fill: tomato;"></circle><circle r="4" class="s3 age-55" cx="830.9957901486151" cy="22.876967723212488" style="fill: tomato;"></circle><circle r="4" class="s3 age-55" cx="819.5731697603213" cy="35.90301665032043" style="fill: tomato;"></circle><circle r="4" class="s3 age-55" cx="800.7079411521221" cy="42.38303457419787" style="fill: tomato;"></circle><circle r="4" class="s3 age-55" cx="832.2307888398135" cy="-34.33687278528922" style="fill: tomato;"></circle><circle r="4" class="s3 age-55" cx="836.6611493937336" cy="-6.570174676848484" style="fill: tomato;"></circle><circle r="4" class="s3 age-55" cx="867.5817126622958" cy="4.4169219202340475" style="fill: tomato;"></circle><circle r="4" class="s3 age-55" cx="787.6304691466466" cy="19.46476245729944" style="fill: tomato;"></circle><circle r="4" class="s3 age-55" cx="848.8123059599868" cy="31.762987263785163" style="fill: tomato;"></circle><circle r="4" class="s3 age-55" cx="850.0999174318879" cy="21.870964573688397" style="fill: tomato;"></circle><circle r="4" class="s3 age-55" cx="774.2945100276929" cy="42.258597583049074" style="fill: tomato;"></circle><circle r="4" class="s3 age-55" cx="776.2202319716246" cy="32.4507509349081" style="fill: tomato;"></circle><circle r="4" class="s3 age-55" cx="823.4694246740089" cy="16.321337228299775" style="fill: tomato;"></circle><circle r="4" class="s3 age-55" cx="800.9007115925211" cy="-3.2908059725029184" style="fill: tomato;"></circle><circle r="4" class="s3 age-55" cx="860.0277642273431" cy="22.78594705714288" style="fill: tomato;"></circle><circle r="4" class="s3 age-55" cx="785.6776473040059" cy="29.229937792782465" style="fill: tomato;"></circle><circle r="4" class="s3 age-55" cx="776.3327349485311" cy="-13.266155854536049" style="fill: tomato;"></circle><circle r="4" class="s3 age-55" cx="808.0132256267793" cy="-52.889648745213634" style="fill: tomato;"></circle><circle r="4" class="s3 age-55" cx="804.5431358185293" cy="22.78919810575192" style="fill: tomato;"></circle><circle r="4" class="s3 age-55" cx="789.5658540739634" cy="9.674192190428908" style="fill: tomato;"></circle><circle r="4" class="s3 age-55" cx="802.6539839032876" cy="32.587922250668285" style="fill: tomato;"></circle><circle r="4" class="s3 age-55" cx="827.0901856543055" cy="42.44576170467397" style="fill: tomato;"></circle><circle r="4" class="s3 age-55" cx="793.1989482167755" cy="35.81031958375659" style="fill: tomato;"></circle><circle r="4" class="s3 age-55" cx="840.4025162616409" cy="19.594750005812376" style="fill: tomato;"></circle><circle r="4" class="s3 age-55" cx="798.7811613009108" cy="-49.095494986562485" style="fill: tomato;"></circle><circle r="4" class="s3 age-55" cx="815.9497377243998" cy="9.775629212972893" style="fill: tomato;"></circle><circle r="4" class="s3 age-55" cx="857.6016781810533" cy="-36.33814138846038" style="fill: tomato;"></circle><circle r="4" class="s3 age-55" cx="812.0885963913171" cy="29.373853970492107" style="fill: tomato;"></circle><circle r="4" class="s3 age-55" cx="821.5632971030124" cy="26.124222022215214" style="fill: tomato;"></circle><circle r="4" class="s3 age-55" cx="812.1623273334494" cy="-16.33810708259547" style="fill: tomato;"></circle><circle r="4" class="s3 age-55" cx="841.9128679164717" cy="38.95762639144654" style="fill: tomato;"></circle><circle r="4" class="s3 age-55" cx="806.4817055191844" cy="13.013728037399027" style="fill: tomato;"></circle><circle r="4" class="s3 age-55" cx="793.3708720800721" cy="-9.85519833651727" style="fill: tomato;"></circle><circle r="4" class="s3 age-55" cx="796.8565098200856" cy="-39.28245865950814" style="fill: tomato;"></circle><circle r="4" class="s3 age-55" cx="808.2253932078596" cy="48.94398210622561" style="fill: tomato;"></circle><circle r="4" class="s3 age-55" cx="815.2101867695833" cy="-37.08618957131205" style="fill: tomato;"></circle><circle r="4" class="s3 age-55" cx="814.0369857019325" cy="19.56489137064263" style="fill: tomato;"></circle><circle r="4" class="s3 age-55" cx="817.8377131023313" cy="-0.007616712440949253" style="fill: tomato;"></circle><circle r="4" class="s3 age-55" cx="822.9369051105398" cy="-30.738137589438303" style="fill: tomato;"></circle><circle r="4" class="s3 age-55" cx="785.8196768124924" cy="-16.4110693748135" style="fill: tomato;"></circle><circle r="4" class="s3 age-55" cx="832.8563117225739" cy="13.033134656382371" style="fill: tomato;"></circle><circle r="4" class="s3 age-55" cx="829.3559868557154" cy="32.70585036053264" style="fill: tomato;"></circle><circle r="4" class="s3 age-55" cx="857.5920344425044" cy="3.9626896842138213" style="fill: tomato;"></circle><circle r="4" class="s4 age-55" cx="1183.8678618501524" cy="-52.13319405907358" style="fill: lime;"></circle><circle r="4" class="s4 age-55" cx="1228.1532993934277" cy="-28.23467708771065" style="fill: lime;"></circle><circle r="4" class="s4 age-55" cx="1224.0669899371676" cy="11.546268642757095" style="fill: lime;"></circle><circle r="4" class="s4 age-55" cx="1193.370719338934" cy="62.77261084203045" style="fill: lime;"></circle><circle r="4" class="s4 age-55" cx="1154.6466325367892" cy="38.40541324521831" style="fill: lime;"></circle><circle r="4" class="s4 age-55" cx="1166.466171968143" cy="25.802198398508978" style="fill: lime;"></circle><circle r="4" class="s4 age-55" cx="1178.7688559503836" cy="49.149213601654246" style="fill: lime;"></circle><circle r="4" class="s4 age-55" cx="1229.1742675777152" cy="28.05190768349594" style="fill: lime;"></circle><circle r="4" class="s4 age-55" cx="1171.4981507602504" cy="42.348396784333694" style="fill: lime;"></circle><circle r="4" class="s4 age-55" cx="1183.2793480961482" cy="29.688908633732034" style="fill: lime;"></circle><circle r="4" class="s4 age-55" cx="1206.835573732094" cy="4.411200850276104" style="fill: lime;"></circle><circle r="4" class="s4 age-55" cx="1195.0648687382863" cy="17.06568711269238" style="fill: lime;"></circle><circle r="4" class="s4 age-55" cx="1168.7216111401447" cy="16.103281775772327" style="fill: lime;"></circle><circle r="4" class="s4 age-55" cx="1174.3934995384716" cy="-49.087750314825094" style="fill: lime;"></circle><circle r="4" class="s4 age-55" cx="1195.6131449277943" cy="53.04940761540122" style="fill: lime;"></circle><circle r="4" class="s4 age-55" cx="1221.3669619135699" cy="-20.915372803060563" style="fill: lime;"></circle><circle r="4" class="s4 age-55" cx="1219.6172980274084" cy="30.955428014187138" style="fill: lime;"></circle><circle r="4" class="s4 age-55" cx="1205.7357821799635" cy="-42.142529979871824" style="fill: lime;"></circle><circle r="4" class="s4 age-55" cx="1176.5040541185313" cy="58.87084605853874" style="fill: lime;"></circle><circle r="4" class="s4 age-55" cx="1145.0182628166422" cy="-45.01959027837193" style="fill: lime;"></circle><circle r="4" class="s4 age-55" cx="1226.9138184128412" cy="37.77280309771232" style="fill: lime;"></circle><circle r="4" class="s4 age-55" cx="1189.190703184239" cy="-35.679966219378315" style="fill: lime;"></circle><circle r="4" class="s4 age-55" cx="1188.306207246452" cy="46.24042352015636" style="fill: lime;"></circle><circle r="4" class="s4 age-55" cx="1139.7189702666376" cy="-11.306271744653154" style="fill: lime;"></circle><circle r="4" class="s4 age-55" cx="1127.8520321219976" cy="1.2587486292179204" style="fill: lime;"></circle><circle r="4" class="s4 age-55" cx="1197.8362872975083" cy="43.32154051461626" style="fill: lime;"></circle><circle r="4" class="s4 age-55" cx="1231.3951208657095" cy="18.319437821636683" style="fill: lime;"></circle><circle r="4" class="s4 age-55" cx="1153.5951909715648" cy="-39.93622156780731" style="fill: lime;"></circle><circle r="4" class="s4 age-55" cx="1155.631216775339" cy="-49.70682626258703" style="fill: lime;"></circle><circle r="4" class="s4 age-55" cx="1208.9758368374085" cy="-5.419469766172757" style="fill: lime;"></circle><circle r="4" class="s4 age-55" cx="1151.6264258684623" cy="-30.15743194597761" style="fill: lime;"></circle><circle r="4" class="s4 age-55" cx="1205.1516394830128" cy="50.10092799190662" style="fill: lime;"></circle><circle r="4" class="s4 age-55" cx="1179.8261882352417" cy="-32.626900576916924" style="fill: lime;"></circle><circle r="4" class="s4 age-55" cx="1169.2178403794364" cy="52.05722696832533" style="fill: lime;"></circle><circle r="4" class="s4 age-55" cx="1202.9304499222912" cy="59.83467768075174" style="fill: lime;"></circle><circle r="4" class="s4 age-55" cx="1208.7349262406487" cy="-32.657770239896" style="fill: lime;"></circle><circle r="4" class="s4 age-55" cx="1183.3941604996337" cy="-62.10318018288236" style="fill: lime;"></circle><circle r="4" class="s4 age-55" cx="1217.3747266587463" cy="40.673296435303044" style="fill: lime;"></circle><circle r="4" class="s4 age-55" cx="1173.274759476073" cy="-3.3214487028359985" style="fill: lime;"></circle><circle r="4" class="s4 age-55" cx="1200.0989465976465" cy="33.597979748679485" style="fill: lime;"></circle><circle r="4" class="s4 age-55" cx="1199.6099714647203" cy="-2.3675332635390323" style="fill: lime;"></circle><circle r="4" class="s4 age-55" cx="1173.880347359697" cy="-59.04497743529031" style="fill: lime;"></circle><circle r="4" class="s4 age-55" cx="1183.812037072552" cy="65.6902690593769" style="fill: lime;"></circle><circle r="4" class="s4 age-55" cx="1205.1970726321629" cy="-58.842603332748624" style="fill: lime;"></circle><circle r="4" class="s4 age-55" cx="1152.3705311905333" cy="48.13341322339212" style="fill: lime;"></circle><circle r="4" class="s4 age-55" cx="1158.7510430091675" cy="-16.884105616107316" style="fill: lime;"></circle><circle r="4" class="s4 age-55" cx="1146.9461843430688" cy="-4.413301257936658" style="fill: lime;"></circle><circle r="4" class="s4 age-55" cx="1220.698271527656" cy="-48.48224082006261" style="fill: lime;"></circle><circle r="4" class="s4 age-55" cx="1166.0479945211362" cy="-10.103027710432478" style="fill: lime;"></circle><circle r="4" class="s4 age-55" cx="1192.1629051171944" cy="-66.91360879648177" style="fill: lime;"></circle><circle r="4" class="s4 age-55" cx="1181.8176463311456" cy="-42.3867292575704" style="fill: lime;"></circle><circle r="4" class="s4 age-55" cx="1204.5790506975013" cy="14.12322996690226" style="fill: lime;"></circle><circle r="4" class="s4 age-55" cx="1200.047184169319" cy="-50.27903206634475" style="fill: lime;"></circle><circle r="4" class="s4 age-55" cx="1162.8492448960083" cy="-36.245776989281914" style="fill: lime;"></circle><circle r="4" class="s4 age-55" cx="1225.2221874395675" cy="-37.779384247536996" style="fill: lime;"></circle><circle r="4" class="s4 age-55" cx="1161.9301013179222" cy="45.22701529398632" style="fill: lime;"></circle><circle r="4" class="s4 age-55" cx="1135.1034257659007" cy="-20.159634331680735" style="fill: lime;"></circle><circle r="4" class="s4 age-55" cx="1164.374479842369" cy="-55.95288456845212" style="fill: lime;"></circle><circle r="4" class="s4 age-55" cx="1211.6673495769455" cy="-23.101420886562174" style="fill: lime;"></circle><circle r="4" class="s4 age-55" cx="1137.4126092564754" cy="-1.5835915539949101" style="fill: lime;"></circle><circle r="4" class="s4 age-55" cx="1190.5603568705087" cy="36.48853383501905" style="fill: lime;"></circle><circle r="4" class="s4 age-55" cx="1149.6425876084922" cy="21.84942068480953" style="fill: lime;"></circle><circle r="4" class="s4 age-55" cx="1135.092976263715" cy="8.141775238052798" style="fill: lime;"></circle><circle r="4" class="s4 age-55" cx="1140.0847360999164" cy="24.738074627771972" style="fill: lime;"></circle><circle r="4" class="s4 age-55" cx="1145.0887689369106" cy="41.29568989957126" style="fill: lime;"></circle><circle r="4" class="s4 age-55" cx="1221.8630323750144" cy="21.23177614984171" style="fill: lime;"></circle><circle r="4" class="s4 age-55" cx="1178.2352986865735" cy="13.186367251887006" style="fill: lime;"></circle><circle r="4" class="s4 age-55" cx="1144.6872766323957" cy="-23.000831223676432" style="fill: lime;"></circle><circle r="4" class="s4 age-55" cx="1192.5817460829157" cy="-56.93992268620604" style="fill: lime;"></circle><circle r="4" class="s4 age-55" cx="1192.8213672093293" cy="26.782523194574637" style="fill: lime;"></circle><circle r="4" class="s4 age-55" cx="1132.8094628443293" cy="17.877750073731207" style="fill: lime;"></circle><circle r="4" class="s4 age-55" cx="1214.139694505899" cy="11.1984126319398" style="fill: lime;"></circle><circle r="4" class="s4 age-55" cx="1215.1456476247524" cy="50.426678219576885" style="fill: lime;"></circle><circle r="4" class="s4 age-55" cx="1186.065979802631" cy="55.947592736773956" style="fill: lime;"></circle><circle r="4" class="s4 age-55" cx="1203.4541627664448" cy="-14.35463275540889" style="fill: lime;"></circle><circle r="4" class="s4 age-55" cx="1187.3373212409024" cy="-25.770596511967213" style="fill: tomato;"></circle><circle r="4" class="s4 age-55" cx="1147.3636095542831" cy="31.565300141529104" style="fill: tomato;"></circle><circle r="4" class="s4 age-55" cx="1232.677284222978" cy="-5.701752537730717" style="fill: tomato;"></circle><circle r="4" class="s4 age-55" cx="1240.0855392296821" cy="0.972173503755481" style="fill: tomato;"></circle><circle r="4" class="s4 age-55" cx="1185.0211725892243" cy="-16.007637840811523" style="fill: tomato;"></circle><circle r="4" class="s4 age-55" cx="1164.2002870422077" cy="35.508868607259366" style="fill: tomato;"></circle><circle r="4" class="s4 age-55" cx="1222.4280464249125" cy="-7.362799700140104" style="fill: tomato;"></circle><circle r="4" class="s4 age-55" cx="1154.1828326257175" cy="2.4359434561565845" style="fill: tomato;"></circle><circle r="4" class="s4 age-55" cx="1151.9205812426396" cy="12.141587380614366" style="fill: tomato;"></circle><circle r="4" class="s4 age-55" cx="1130.172501437058" cy="-8.474137319760647" style="fill: tomato;"></circle><circle r="4" class="s4 age-55" cx="1209.6567916192148" cy="30.671566912081374" style="fill: tomato;"></circle><circle r="4" class="s4 age-55" cx="1191.2881800548355" cy="-45.43705607076215" style="fill: tomato;"></circle><circle r="4" class="s4 age-55" cx="1239.4889012056672" cy="-12.964926576431822" style="fill: tomato;"></circle><circle r="4" class="s4 age-55" cx="1207.3888644215965" cy="40.38772231278167" style="fill: tomato;"></circle><circle r="4" class="s4 age-55" cx="1199.0095857730807" cy="-34.83930663085869" style="fill: tomato;"></circle><circle r="4" class="s4 age-55" cx="1182.7515321533256" cy="-6.265841010739062" style="fill: tomato;"></circle><circle r="4" class="s4 age-55" cx="1161.456270617604" cy="9.283641411098197" style="fill: tomato;"></circle><circle r="4" class="s4 age-55" cx="1185.537892574167" cy="19.984462242759246" style="fill: tomato;"></circle><circle r="4" class="s4 age-55" cx="1210.9300462954527" cy="-50.64597674255332" style="fill: tomato;"></circle><circle r="4" class="s4 age-55" cx="1233.6029154597777" cy="8.586984022079976" style="fill: tomato;"></circle><circle r="4" class="s4 age-55" cx="1215.45833154894" cy="-39.961989823042906" style="fill: tomato;"></circle><circle r="4" class="s4 age-55" cx="1187.7910659397512" cy="10.331360190816618" style="fill: tomato;"></circle><circle r="4" class="s4 age-55" cx="1236.2446415438444" cy="-22.4277203828313" style="fill: tomato;"></circle><circle r="4" class="s4 age-55" cx="1142.3628331763477" cy="15.02349054623577" style="fill: tomato;"></circle><circle r="4" class="s4 age-55" cx="1202.3296804818344" cy="23.849712506022936" style="fill: tomato;"></circle><circle r="4" class="s4 age-55" cx="1168.2300778282543" cy="-19.793927716817432" style="fill: tomato;"></circle><circle r="4" class="s4 age-55" cx="1144.654219607404" cy="5.289552652332405" style="fill: tomato;"></circle><circle r="4" class="s4 age-55" cx="1177.788836692786" cy="-22.84502244842882" style="fill: tomato;"></circle><circle r="4" class="s4 age-55" cx="1149.2433296973713" cy="-14.101269856149703" style="fill: tomato;"></circle><circle r="4" class="s4 age-55" cx="1172.3646051391888" cy="-39.33071212433628" style="fill: tomato;"></circle><circle r="4" class="s4 age-55" cx="1143.049077522054" cy="-35.216729941419466" style="fill: tomato;"></circle><circle r="4" class="s4 age-55" cx="1216.261247027729" cy="1.3151535444299103" style="fill: tomato;"></circle><circle r="4" class="s4 age-55" cx="1190.0537986915149" cy="0.5323206935731449" style="fill: tomato;"></circle><circle r="4" class="s4 age-55" cx="1226.2458135701906" cy="1.8704634609089186" style="fill: tomato;"></circle><circle r="4" class="s4 age-55" cx="1218.4402622703597" cy="-30.416934122292897" style="fill: tomato;"></circle><circle r="4" class="s4 age-55" cx="1194.5012216955986" cy="-18.804120772815892" style="fill: tomato;"></circle><circle r="4" class="s4 age-55" cx="1180.5441453202993" cy="3.4434876970755917" style="fill: tomato;"></circle><circle r="4" class="s4 age-55" cx="1175.537225968716" cy="-13.017188707549806" style="fill: tomato;"></circle><circle r="4" class="s4 age-55" cx="1159.22021613184" cy="18.961171470207578" style="fill: tomato;"></circle><circle r="4" class="s4 age-55" cx="1164.9035891625117" cy="-45.96869867902837" style="fill: tomato;"></circle><circle r="4" class="s4 age-55" cx="1192.304356259218" cy="-9.124170181243347" style="fill: tomato;"></circle><circle r="4" class="s4 age-55" cx="1214.6119116068135" cy="-13.584942258950592" style="fill: tomato;"></circle><circle r="4" class="s4 age-55" cx="1173.7296583267919" cy="32.6029347028298" style="fill: tomato;"></circle><circle r="4" class="s4 age-55" cx="1202.0123666024301" cy="-25.339525880592614" style="fill: tomato;"></circle><circle r="4" class="s4 age-55" cx="1160.8334557172018" cy="-26.4932529596211" style="fill: tomato;"></circle><circle r="4" class="s4 age-55" cx="1211.889892188494" cy="20.91673589017579" style="fill: tomato;"></circle><circle r="4" class="s4 age-55" cx="1175.9957121281548" cy="22.877251041763305" style="fill: tomato;"></circle><circle r="4" class="s4 age-55" cx="1163.7587910527268" cy="-0.4413242065666108" style="fill: tomato;"></circle><circle r="4" class="s4 age-55" cx="1197.33958383417" cy="7.341546862236742" style="fill: tomato;"></circle><circle r="4" class="s4 age-55" cx="1156.4960294942723" cy="-7.25911922936548" style="fill: tomato;"></circle><circle r="4" class="s4 age-55" cx="1181.0237710726929" cy="39.424011645001585" style="fill: tomato;"></circle><circle r="4" class="s4 age-55" cx="1156.9163373105869" cy="28.69215968601669" style="fill: tomato;"></circle><circle r="4" class="s4 age-55" cx="1170.3515988223007" cy="-29.560001414294163" style="fill: tomato;"></circle><circle r="4" class="s4 age-55" cx="1171.0113805835297" cy="6.400943286002983" style="fill: tomato;"></circle><circle r="4" class="s4 age-55" cx="1229.4181306001883" cy="-15.120275825967914" style="fill: tomato;"></circle><circle r="4" class="s5 age-undefined" cx="1568.2445668729135" cy="4.24993517583356" style="fill: lime;"></circle><circle r="4" class="s5 age-undefined" cx="1584.8325138816185" cy="-26.133984212377396" style="fill: lime;"></circle><circle r="4" class="s5 age-undefined" cx="1586.26445301078" cy="33.804746323521" style="fill: lime;"></circle><circle r="4" class="s5 age-undefined" cx="1576.5326673674826" cy="-10.940696457227295" style="fill: lime;"></circle><circle r="4" class="s5 age-undefined" cx="1585.3026828959732" cy="-6.153146576889225" style="fill: lime;"></circle><circle r="4" class="s5 age-undefined" cx="1559.937187470289" cy="19.43856779371204" style="fill: lime;"></circle><circle r="4" class="s5 age-undefined" cx="1567.5227788427255" cy="-25.72216283989222" style="fill: lime;"></circle><circle r="4" class="s5 age-undefined" cx="1577.255347279842" cy="19.026387077850902" style="fill: lime;"></circle><circle r="4" class="s5 age-undefined" cx="1559.4738245769624" cy="-0.5351380427093585" style="fill: lime;"></circle><circle r="4" class="s5 age-undefined" cx="1585.066322720445" cy="-16.139645765167693" style="fill: lime;"></circle><circle r="4" class="s5 age-undefined" cx="1577.4909292827967" cy="29.01085907346383" style="fill: lime;"></circle><circle r="4" class="s5 age-undefined" cx="1550.4512917636725" cy="-15.31780020472168" style="fill: lime;"></circle><circle r="4" class="s5 age-undefined" cx="1576.7725139674405" cy="-0.9536822945826954" style="fill: lime;"></circle><circle r="4" class="s5 age-undefined" cx="1585.7935308401572" cy="13.82591514509576" style="fill: lime;"></circle><circle r="4" class="s5 age-undefined" cx="1576.0589405799458" cy="-30.92497016739253" style="fill: lime;"></circle><circle r="4" class="s5 age-undefined" cx="1586.0273451830267" cy="23.815215869902378" style="fill: lime;"></circle><circle r="4" class="s5 age-undefined" cx="1568.0061528740014" cy="-5.72976393863735" style="fill: lime;"></circle><circle r="4" class="s5 age-undefined" cx="1559.2273187632034" cy="-10.52611378523532" style="fill: lime;"></circle><circle r="4" class="s5 age-undefined" cx="1560.1747701871745" cy="29.426782017074" style="fill: lime;"></circle><circle r="4" class="s5 age-undefined" cx="1576.2989358994382" cy="-20.931629705360194" style="fill: lime;"></circle><circle r="4" class="s5 age-undefined" cx="1568.4799649934575" cy="14.235791596971652" style="fill: lime;"></circle><circle r="4" class="s5 age-undefined" cx="1550.9310501120924" cy="4.670528413362564" style="fill: lime;"></circle><circle r="4" class="s5 age-undefined" cx="1593.6055452811436" cy="-21.34392274432617" style="fill: lime;"></circle><circle r="4" class="s5 age-undefined" cx="1577.7270514808959" cy="39.0086602905918" style="fill: tomato;"></circle><circle r="4" class="s5 age-undefined" cx="1567.761185679766" cy="-15.72817179928851" style="fill: tomato;"></circle><circle r="4" class="s5 age-undefined" cx="1594.0830753810988" cy="-1.3557323920972977" style="fill: tomato;"></circle><circle r="4" class="s5 age-undefined" cx="1559.7112137050724" cy="9.453565765241114" style="fill: tomato;"></circle><circle r="4" class="s5 age-undefined" cx="1567.278747144662" cy="-35.70841604212509" style="fill: tomato;"></circle><circle r="4" class="s5 age-undefined" cx="1568.7147476574714" cy="24.22331025991214" style="fill: tomato;"></circle><circle r="4" class="s5 age-undefined" cx="1550.6970324164872" cy="-5.3234824266729674" style="fill: tomato;"></circle><circle r="4" class="s5 age-undefined" cx="1593.8410895770005" cy="-11.349664116690116" style="fill: tomato;"></circle><circle r="4" class="s5 age-undefined" cx="1568.9503973265093" cy="34.220533330988125" style="fill: tomato;"></circle><circle r="4" class="s5 age-undefined" cx="1558.9872904104716" cy="-20.525958974818742" style="fill: tomato;"></circle><circle r="4" class="s5 age-undefined" cx="1585.5455453721913" cy="3.833884834940397" style="fill: tomato;"></circle><circle r="4" class="s5 age-undefined" cx="1577.0093817589407" cy="9.04290686597146" style="fill: tomato;"></circle></g>
    </svg>