<svg width="2200" height="400">
      <g transform="translate(50, 200)"><circle r="4" class="s1 age-65" cx="9.163968254419244" cy="-0.6458577099694669" style="fill: lime;"></circle><circle r="4" class="s1 age-65" cx="18.96466485841976" cy="1.3426826200734256" style="fill: lime;"></circle><circle r="4" class="s1 age-65" cx="15.786355479297665" cy="-8.138352352557387" style="fill: tomato;"></circle><circle r="4" class="s1 age-65" cx="22.142982174473286" cy="10.82435150772192" style="fill: tomato;"></circle><circle r="4" class="s1 age-65" cx="12.342694265238418" cy="8.835795030175822" style="fill: tomato;"></circle><circle r="4" class="s1 age-65" cx="25.586519472126266" cy="-6.14918526497442" style="fill: tomato;"></circle><circle r="4" class="s2 age-65" cx="407.02392313210555" cy="-19.18885804901704" style="fill: lime;"></circle><circle r="4" class="s2 age-65" cx="424.7304344508289" cy="30.65126001420589" style="fill: lime;"></circle><circle r="4" class="s2 age-65" cx="441.97003352322525" cy="20.514793637137057" style="fill: lime;"></circle><circle r="4" class="s2 age-65" cx="441.818397012537" cy="0.5226360709898661" style="fill: lime;"></circle><circle r="4" class="s2 age-65" cx="441.89311095275525" cy="10.518913375046521" style="fill: lime;"></circle><circle r="4" class="s2 age-65" cx="415.80834891252863" cy="-4.267781199668435" style="fill: lime;"></circle><circle r="4" class="s2 age-65" cx="433.19969693258804" cy="5.589756238860858" style="fill: lime;"></circle><circle r="4" class="s2 age-65" cx="407.2618932550417" cy="10.798516359686683" style="fill: lime;"></circle><circle r="4" class="s2 age-65" cx="415.8843632510726" cy="5.725586415794192" style="fill: lime;"></circle><circle r="4" class="s2 age-65" cx="441.7379778754872" cy="-9.472720563259896" style="fill: lime;"></circle><circle r="4" class="s2 age-65" cx="398.49275229058014" cy="-4.123681766150535" style="fill: lime;"></circle><circle r="4" class="s2 age-65" cx="424.65384670730054" cy="20.65663638481562" style="fill: lime;"></circle><circle r="4" class="s2 age-65" cx="433.3496069256309" cy="25.581061527778616" style="fill: lime;"></circle><circle r="4" class="s2 age-65" cx="432.9660715726351" cy="-24.39915711128775" style="fill: lime;"></circle><circle r="4" class="s2 age-65" cx="433.2750251947486" cy="15.5840142203735" style="fill: lime;"></circle><circle r="4" class="s2 age-65" cx="424.2637736937465" cy="-29.327086822023322" style="fill: lime;"></circle><circle r="4" class="s2 age-65" cx="407.11194845699055" cy="-9.19383376863151" style="fill: lime;"></circle><circle r="4" class="s2 age-65" cx="416.03254027031056" cy="25.716593696289046" style="fill: tomato;"></circle><circle r="4" class="s2 age-65" cx="433.12195671799856" cy="-4.40289306298668" style="fill: tomato;"></circle><circle r="4" class="s2 age-65" cx="433.04328494985776" cy="-14.401725414308439" style="fill: tomato;"></circle><circle r="4" class="s2 age-65" cx="424.34678176575824" cy="-19.33446820763501" style="fill: tomato;"></circle><circle r="4" class="s2 age-65" cx="415.72152450171114" cy="-14.260850603918977" style="fill: tomato;"></circle><circle r="4" class="s2 age-65" cx="424.42086935612383" cy="-9.33626198989573" style="fill: tomato;"></circle><circle r="4" class="s2 age-65" cx="407.19798110580786" cy="0.803788799668786" style="fill: tomato;"></circle><circle r="4" class="s2 age-65" cx="415.95744402795077" cy="15.718476368580868" style="fill: tomato;"></circle><circle r="4" class="s2 age-65" cx="415.64109685582673" cy="-24.258483964656065" style="fill: tomato;"></circle><circle r="4" class="s2 age-65" cx="424.57838259442326" cy="10.657011097436685" style="fill: tomato;"></circle><circle r="4" class="s2 age-65" cx="424.4970482962491" cy="0.6573418675707351" style="fill: tomato;"></circle><circle r="4" class="s3 age-65" cx="807.3575524439443" cy="-0.882101718693381" style="fill: lime;"></circle><circle r="4" class="s3 age-65" cx="854.2047707560815" cy="-22.771484754734132" style="fill: lime;"></circle><circle r="4" class="s3 age-65" cx="858.2766826116821" cy="-9.19828753585167" style="fill: lime;"></circle><circle r="4" class="s3 age-65" cx="835.0452394122063" cy="55.260548792313266" style="fill: lime;"></circle><circle r="4" class="s3 age-65" cx="814.4914779763196" cy="-49.988378158457614" style="fill: lime;"></circle><circle r="4" class="s3 age-65" cx="811.7618328382719" cy="-40.40266839689672" style="fill: lime;"></circle><circle r="4" class="s3 age-65" cx="790.8931374904091" cy="-33.61918414338963" style="fill: lime;"></circle><circle r="4" class="s3 age-65" cx="825.837095217633" cy="-54.636924765064975" style="fill: lime;"></circle><circle r="4" class="s3 age-65" cx="793.608164739913" cy="-43.23257322231165" style="fill: lime;"></circle><circle r="4" class="s3 age-65" cx="817.1715541722068" cy="-59.600047048375224" style="fill: lime;"></circle><circle r="4" class="s3 age-65" cx="815.1694567165514" cy="-6.81118490650976" style="fill: lime;"></circle><circle r="4" class="s3 age-65" cx="789.7538329832504" cy="-10.148534830853478" style="fill: lime;"></circle><circle r="4" class="s3 age-65" cx="817.7291375168613" cy="-26.01089527015354" style="fill: lime;"></circle><circle r="4" class="s3 age-65" cx="833.0952967233839" cy="-45.76996196418288" style="fill: lime;"></circle><circle r="4" class="s3 age-65" cx="840.0563716455329" cy="-38.60827800328821" style="fill: lime;"></circle><circle r="4" class="s3 age-65" cx="798.3876737155142" cy="-5.141246502021926" style="fill: lime;"></circle><circle r="4" class="s3 age-65" cx="844.5237129272143" cy="13.468366154708685" style="fill: lime;"></circle><circle r="4" class="s3 age-65" cx="802.487025858775" cy="24.95233105239235" style="fill: lime;"></circle><circle r="4" class="s3 age-65" cx="861.6031498691655" cy="10.737416187690078" style="fill: lime;"></circle><circle r="4" class="s3 age-65" cx="797.6686955034893" cy="50.906220511793094" style="fill: lime;"></circle><circle r="4" class="s3 age-65" cx="841.4266074747709" cy="-6.311703987414822" style="fill: lime;"></circle><circle r="4" class="s3 age-65" cx="800.5603587061012" cy="-36.08405340431446" style="fill: lime;"></circle><circle r="4" class="s3 age-65" cx="848.9703242860188" cy="-12.851371071955633" style="fill: lime;"></circle><circle r="4" class="s3 age-65" cx="830.3929333712422" cy="-36.163884463571286" style="fill: lime;"></circle><circle r="4" class="s3 age-65" cx="842.9935130624707" cy="3.617265634680923" style="fill: lime;"></circle><circle r="4" class="s3 age-65" cx="805.4827536827032" cy="44.693600153093115" style="fill: lime;"></circle><circle r="4" class="s3 age-65" cx="820.3991895776709" cy="-35.45239911162638" style="fill: lime;"></circle><circle r="4" class="s3 age-65" cx="825.7197249498106" cy="51.649308676287745" style="fill: lime;"></circle><circle r="4" class="s3 age-65" cx="814.8636112491296" cy="48.37087168140425" style="fill: lime;"></circle><circle r="4" class="s3 age-65" cx="847.5883892227885" cy="33.185435741485314" style="fill: lime;"></circle><circle r="4" class="s3 age-65" cx="860.0569190978623" cy="0.8572085869117954" style="fill: lime;"></circle><circle r="4" class="s3 age-65" cx="823.1567287017781" cy="-45.06468095438272" style="fill: lime;"></circle><circle r="4" class="s3 age-65" cx="797.8098047872363" cy="-26.493555540173364" style="fill: lime;"></circle><circle r="4" class="s3 age-65" cx="847.0218200732384" cy="-31.288003464871014" style="fill: lime;"></circle><circle r="4" class="s3 age-65" cx="818.1404109148622" cy="12.646015493219911" style="fill: lime;"></circle><circle r="4" class="s3 age-65" cx="786.8450311602768" cy="37.34642983285406" style="fill: lime;"></circle><circle r="4" class="s3 age-65" cx="828.962353856472" cy="26.053058016324652" style="fill: lime;"></circle><circle r="4" class="s3 age-65" cx="788.373405595163" cy="47.221211742460845" style="fill: lime;"></circle><circle r="4" class="s3 age-65" cx="773.3795377376592" cy="-9.251067001596171" style="fill: lime;"></circle><circle r="4" class="s3 age-65" cx="837.3379610956455" cy="-29.00968617768045" style="fill: lime;"></circle><circle r="4" class="s3 age-65" cx="835.7972748017122" cy="-55.379272951198985" style="fill: lime;"></circle><circle r="4" class="s3 age-65" cx="783.6688087818367" cy="-40.48065162365799" style="fill: lime;"></circle><circle r="4" class="s3 age-65" cx="789.2289797147592" cy="-21.418993161402312" style="fill: lime;"></circle><circle r="4" class="s3 age-65" cx="776.0611739798137" cy="23.752360782671786" style="fill: lime;"></circle><circle r="4" class="s3 age-65" cx="856.936761226894" cy="-32.384337631190554" style="fill: lime;"></circle><circle r="4" class="s3 age-65" cx="785.3453233229989" cy="27.470617347427375" style="fill: lime;"></circle><circle r="4" class="s3 age-65" cx="844.3105816490429" cy="-21.68250428405313" style="fill: lime;"></circle><circle r="4" class="s3 age-65" cx="774.03093021381" cy="2.138007068593221" style="fill: lime;"></circle><circle r="4" class="s3 age-65" cx="816.6595271318483" cy="2.796359517302747" style="fill: lime;"></circle><circle r="4" class="s3 age-65" cx="774.3085524774559" cy="-22.547460882608874" style="fill: lime;"></circle><circle r="4" class="s3 age-65" cx="833.5013494027817" cy="45.40456714111585" style="fill: lime;"></circle><circle r="4" class="s3 age-65" cx="782.6645094764639" cy="7.166440821592211" style="fill: tomato;"></circle><circle r="4" class="s3 age-65" cx="803.3098896190879" cy="-45.678769852262" style="fill: tomato;"></circle><circle r="4" class="s3 age-65" cx="804.0079536186034" cy="34.80359221655111" style="fill: tomato;"></circle><circle r="4" class="s3 age-65" cx="849.7716670882287" cy="-40.88857077819457" style="fill: tomato;"></circle><circle r="4" class="s3 age-65" cx="853.8128738026595" cy="17.026278544677037" style="fill: tomato;"></circle><circle r="4" class="s3 age-65" cx="838.2727976863235" cy="29.64737490097176" style="fill: tomato;"></circle><circle r="4" class="s3 age-65" cx="806.0450853075182" cy="-55.297434013156305" style="fill: tomato;"></circle><circle r="4" class="s3 age-65" cx="807.0183269717531" cy="54.55406932312757" style="fill: tomato;"></circle><circle r="4" class="s3 age-65" cx="781.2754671272813" cy="-15.372331280108341" style="fill: tomato;"></circle><circle r="4" class="s3 age-65" cx="796.1942795609993" cy="41.02220784137074" style="fill: tomato;"></circle><circle r="4" class="s3 age-65" cx="810.3075768459495" cy="18.807254873557437" style="fill: tomato;"></circle><circle r="4" class="s3 age-65" cx="856.73888805642" cy="37.15015458680683" style="fill: tomato;"></circle><circle r="4" class="s3 age-65" cx="842.9024449267016" cy="41.99292170508593" style="fill: tomato;"></circle><circle r="4" class="s3 age-65" cx="809.0453548146098" cy="-30.810909926832323" style="fill: tomato;"></circle><circle r="4" class="s3 age-65" cx="783.90047284631" cy="17.58235630447987" style="fill: tomato;"></circle><circle r="4" class="s3 age-65" cx="819.6500352718613" cy="22.400993119486994" style="fill: tomato;"></circle><circle r="4" class="s3 age-65" cx="842.7735487760777" cy="-48.212145754566826" style="fill: tomato;"></circle><circle r="4" class="s3 age-65" cx="794.6930161252236" cy="31.14956444291387" style="fill: tomato;"></circle><circle r="4" class="s3 age-65" cx="781.899154601162" cy="-4.028321376585535" style="fill: tomato;"></circle><circle r="4" class="s3 age-65" cx="791.7085294403335" cy="11.399907397700204" style="fill: tomato;"></circle><circle r="4" class="s3 age-65" cx="832.1190950015392" cy="-9.785779318157424" style="fill: tomato;"></circle><circle r="4" class="s3 age-65" cx="806.2471057035488" cy="-21.2632236654272" style="fill: tomato;"></circle><circle r="4" class="s3 age-65" cx="799.573916900069" cy="5.205096808656655" style="fill: tomato;"></circle><circle r="4" class="s3 age-65" cx="814.9933659473692" cy="-16.494102518737897" style="fill: tomato;"></circle><circle r="4" class="s3 age-65" cx="774.8475317767264" cy="13.37641479409674" style="fill: tomato;"></circle><circle r="4" class="s3 age-65" cx="846.0603280037047" cy="23.318425051661514" style="fill: tomato;"></circle><circle r="4" class="s3 age-65" cx="808.8626803413645" cy="8.927845324729146" style="fill: tomato;"></circle><circle r="4" class="s3 age-65" cx="797.6667997371137" cy="-16.1731020619074" style="fill: tomato;"></circle><circle r="4" class="s3 age-65" cx="863.142228840418" cy="20.61939907004335" style="fill: tomato;"></circle><circle r="4" class="s3 age-65" cx="827.4208224279078" cy="16.241769850316647" style="fill: tomato;"></circle><circle r="4" class="s3 age-65" cx="793.176954204877" cy="21.288168524480394" style="fill: tomato;"></circle><circle r="4" class="s3 age-65" cx="782.2848118387608" cy="-28.581292968605194" style="fill: tomato;"></circle><circle r="4" class="s3 age-65" cx="813.330849998254" cy="38.53737704236246" style="fill: tomato;"></circle><circle r="4" class="s3 age-65" cx="825.911281413811" cy="6.414146133316126" style="fill: tomato;"></circle><circle r="4" class="s3 age-65" cx="817.9069502829219" cy="57.875839722136945" style="fill: tomato;"></circle><circle r="4" class="s3 age-65" cx="855.3686846463531" cy="26.911125472434602" style="fill: tomato;"></circle><circle r="4" class="s3 age-65" cx="821.1380366052465" cy="32.258007702142756" style="fill: tomato;"></circle><circle r="4" class="s3 age-65" cx="834.6357599498875" cy="-19.403982477014093" style="fill: tomato;"></circle><circle r="4" class="s3 age-65" cx="862.9726016016147" cy="-18.007102730008484" style="fill: tomato;"></circle><circle r="4" class="s3 age-65" cx="835.2550692076201" cy="9.908083984732555" style="fill: tomato;"></circle><circle r="4" class="s3 age-65" cx="801.0295413482231" cy="15.096490671486174" style="fill: tomato;"></circle><circle r="4" class="s3 age-65" cx="836.7536990424112" cy="19.7823815976183" style="fill: tomato;"></circle><circle r="4" class="s3 age-65" cx="824.4047884972805" cy="-3.484545742265897" style="fill: tomato;"></circle><circle r="4" class="s3 age-65" cx="827.61819724126" cy="-26.54255120808283" style="fill: tomato;"></circle><circle r="4" class="s3 age-65" cx="811.8320774125658" cy="28.63965583811332" style="fill: tomato;"></circle><circle r="4" class="s3 age-65" cx="824.9683378618838" cy="-16.79617897755943" style="fill: tomato;"></circle><circle r="4" class="s3 age-65" cx="806.3372261339008" cy="-11.190765718873175" style="fill: tomato;"></circle><circle r="4" class="s3 age-65" cx="850.7110518724891" cy="-2.7106455981628717" style="fill: tomato;"></circle><circle r="4" class="s3 age-65" cx="790.522421962859" cy="0.9934711011214905" style="fill: tomato;"></circle><circle r="4" class="s3 age-65" cx="852.2896353261175" cy="7.163972048946532" style="fill: tomato;"></circle><circle r="4" class="s3 age-65" cx="830.4709863085901" cy="35.88325197084476" style="fill: tomato;"></circle><circle r="4" class="s3 age-65" cx="833.75353017216" cy="0.06524691633912087" style="fill: tomato;"></circle><circle r="4" class="s3 age-65" cx="822.6749035371307" cy="42.145926592701386" style="fill: tomato;"></circle><circle r="4" class="s4 age-65" cx="1240.483959741023" cy="17.684762714419694" style="fill: lime;"></circle><circle r="4" class="s4 age-65" cx="1215.2231560658643" cy="9.685286879046048" style="fill: lime;"></circle><circle r="4" class="s4 age-65" cx="1167.641841478196" cy="-12.770760210710721" style="fill: lime;"></circle><circle r="4" class="s4 age-65" cx="1242.59488121055" cy="-2.201191537585081" style="fill: lime;"></circle><circle r="4" class="s4 age-65" cx="1235.5003459151417" cy="-35.55758108350287" style="fill: lime;"></circle><circle r="4" class="s4 age-65" cx="1181.2596541436906" cy="-2.408166631132149" style="fill: lime;"></circle><circle r="4" class="s4 age-65" cx="1181.1389869581183" cy="-42.7245315619413" style="fill: lime;"></circle><circle r="4" class="s4 age-65" cx="1234.7617939637648" cy="-18.42595800947237" style="fill: lime;"></circle><circle r="4" class="s4 age-65" cx="1223.2242446833104" cy="15.540580641506898" style="fill: lime;"></circle><circle r="4" class="s4 age-65" cx="1202.207222762406" cy="-41.78838236681797" style="fill: lime;"></circle><circle r="4" class="s4 age-65" cx="1148.5310695687426" cy="-18.498283540275356" style="fill: lime;"></circle><circle r="4" class="s4 age-65" cx="1150.9135599309445" cy="31.71984394012841" style="fill: lime;"></circle><circle r="4" class="s4 age-65" cx="1166.668613251417" cy="-52.15089489556498" style="fill: lime;"></circle><circle r="4" class="s4 age-65" cx="1210.5667632815819" cy="49.341216526095536" style="fill: lime;"></circle><circle r="4" class="s4 age-65" cx="1202.719640483012" cy="-59.54203640763931" style="fill: lime;"></circle><circle r="4" class="s4 age-65" cx="1198.440970964403" cy="-3.5580897382396723" style="fill: lime;"></circle><circle r="4" class="s4 age-65" cx="1221.0179297474117" cy="35.478166126928784" style="fill: lime;"></circle><circle r="4" class="s4 age-65" cx="1159.0689975117748" cy="21.931276975307824" style="fill: lime;"></circle><circle r="4" class="s4 age-65" cx="1185.4135854069211" cy="-17.10032786739541" style="fill: lime;"></circle><circle r="4" class="s4 age-65" cx="1234.3109863999705" cy="-8.469961081382719" style="fill: lime;"></circle><circle r="4" class="s4 age-65" cx="1212.172297870602" cy="-41.00748746043661" style="fill: lime;"></circle><circle r="4" class="s4 age-65" cx="1141.4040847822869" cy="-11.656932710587043" style="fill: lime;"></circle><circle r="4" class="s4 age-65" cx="1197.410765149092" cy="-51.19058883811317" style="fill: lime;"></circle><circle r="4" class="s4 age-65" cx="1241.5962994296538" cy="7.748884509319502" style="fill: lime;"></circle><circle r="4" class="s4 age-65" cx="1182.3309000060888" cy="61.00626820202154" style="fill: lime;"></circle><circle r="4" class="s4 age-65" cx="1229.0071994941939" cy="41.41358563237856" style="fill: lime;"></circle><circle r="4" class="s4 age-65" cx="1174.0337506760843" cy="-20.291968402403164" style="fill: lime;"></circle><circle r="4" class="s4 age-65" cx="1197.385121827269" cy="-67.98185510430633" style="fill: lime;"></circle><circle r="4" class="s4 age-65" cx="1243.5498658232696" cy="-12.154880328291881" style="fill: lime;"></circle><circle r="4" class="s4 age-65" cx="1217.2164318507125" cy="-49.595810201945206" style="fill: lime;"></circle><circle r="4" class="s4 age-65" cx="1201.2421910425217" cy="53.35493727596652" style="fill: lime;"></circle><circle r="4" class="s4 age-65" cx="1128.3069051704663" cy="3.3377977897625764" style="fill: lime;"></circle><circle r="4" class="s4 age-65" cx="1143.7104346905921" cy="-1.9504544070000938" style="fill: lime;"></circle><circle r="4" class="s4 age-65" cx="1196.7002750416532" cy="-33.5137672882092" style="fill: lime;"></circle><circle r="4" class="s4 age-65" cx="1164.9315030610471" cy="58.15584878273543" style="fill: lime;"></circle><circle r="4" class="s4 age-65" cx="1163.6316761239884" cy="68.03881531350765" style="fill: lime;"></circle><circle r="4" class="s4 age-65" cx="1143.7958793706352" cy="-50.98333903966076" style="fill: lime;"></circle><circle r="4" class="s4 age-65" cx="1156.76765970649" cy="51.23029789571596" style="fill: lime;"></circle><circle r="4" class="s4 age-65" cx="1222.633114823526" cy="-57.992425431659804" style="fill: lime;"></circle><circle r="4" class="s4 age-65" cx="1187.3883464573582" cy="-68.3848273107034" style="fill: lime;"></circle><circle r="4" class="s4 age-65" cx="1186.6428611539138" cy="31.45290862402384" style="fill: lime;"></circle><circle r="4" class="s4 age-65" cx="1201.118400007662" cy="-24.539695698998926" style="fill: lime;"></circle><circle r="4" class="s4 age-65" cx="1155.3375831044962" cy="-25.539996226561346" style="fill: lime;"></circle><circle r="4" class="s4 age-65" cx="1230.0120683777416" cy="-27.20455160574331" style="fill: lime;"></circle><circle r="4" class="s4 age-65" cx="1140.1518445947283" cy="15.901159384646956" style="fill: lime;"></circle><circle r="4" class="s4 age-65" cx="1207.579340044817" cy="69.08446739971257" style="fill: lime;"></circle><circle r="4" class="s4 age-65" cx="1208.1153782395627" cy="-67.90970117086925" style="fill: lime;"></circle><circle r="4" class="s4 age-65" cx="1173.0732294276759" cy="64.76576225168402" style="fill: lime;"></circle><circle r="4" class="s4 age-65" cx="1162.1440711937778" cy="-61.05405198145116" style="fill: lime;"></circle><circle r="4" class="s4 age-65" cx="1146.0012422716889" cy="-28.41533837131814" style="fill: lime;"></circle><circle r="4" class="s4 age-65" cx="1222.142823724255" cy="25.50386897317403" style="fill: lime;"></circle><circle r="4" class="s4 age-65" cx="1148.7387033406085" cy="42.44999636281305" style="fill: lime;"></circle><circle r="4" class="s4 age-65" cx="1210.9840163144338" cy="-23.666543616769655" style="fill: lime;"></circle><circle r="4" class="s4 age-65" cx="1172.1036069153954" cy="-60.51056750690052" style="fill: lime;"></circle><circle r="4" class="s4 age-65" cx="1212.670590985069" cy="-58.7670515088994" style="fill: lime;"></circle><circle r="4" class="s4 age-65" cx="1176.6257693199768" cy="-51.56887139507705" style="fill: lime;"></circle><circle r="4" class="s4 age-65" cx="1208.1208067139082" cy="-6.089848296576358" style="fill: lime;"></circle><circle r="4" class="s4 age-65" cx="1136.3028195914292" cy="-30.953518372681533" style="fill: lime;"></circle><circle r="4" class="s4 age-65" cx="1151.2378892768843" cy="-44.35687526387037" style="fill: lime;"></circle><circle r="4" class="s4 age-65" cx="1158.6340808637876" cy="41.426397942819754" style="fill: lime;"></circle><circle r="4" class="s4 age-65" cx="1225.2882324117536" cy="-4.373986956880865" style="fill: lime;"></circle><circle r="4" class="s4 age-65" cx="1231.2712227388065" cy="21.48199053910158" style="fill: lime;"></circle><circle r="4" class="s4 age-65" cx="1176.2992270403693" cy="15.861487892887398" style="fill: lime;"></circle><circle r="4" class="s4 age-65" cx="1171.1917519452252" cy="-43.23378555621426" style="fill: lime;"></circle><circle r="4" class="s4 age-65" cx="1186.8261654002768" cy="-34.63951422705147" style="fill: lime;"></circle><circle r="4" class="s4 age-65" cx="1192.0645185577519" cy="-59.5246976896677" style="fill: lime;"></circle><circle r="4" class="s4 age-65" cx="1225.557530720104" cy="-36.13897027889991" style="fill: lime;"></circle><circle r="4" class="s4 age-65" cx="1186.649535566061" cy="-51.05291110509097" style="fill: lime;"></circle><circle r="4" class="s4 age-65" cx="1137.901195761899" cy="6.161399556862766" style="fill: lime;"></circle><circle r="4" class="s4 age-65" cx="1142.7724698352533" cy="25.92283566256307" style="fill: lime;"></circle><circle r="4" class="s4 age-65" cx="1183.634760250454" cy="51.12916748191338" style="fill: lime;"></circle><circle r="4" class="s4 age-65" cx="1156.9784974221361" cy="12.040795184239586" style="fill: lime;"></circle><circle r="4" class="s4 age-65" cx="1182.0722023297162" cy="-59.93552793488761" style="fill: lime;"></circle><circle r="4" class="s4 age-65" cx="1141.3272263361769" cy="35.78146160190501" style="fill: lime;"></circle><circle r="4" class="s4 age-65" cx="1177.5140328281075" cy="35.20215303361671" style="fill: lime;"></circle><circle r="4" class="s4 age-65" cx="1240.2364328860963" cy="-26.768706722298948" style="fill: lime;"></circle><circle r="4" class="s4 age-65" cx="1190.2884367194413" cy="67.05214353567652" style="fill: lime;"></circle><circle r="4" class="s4 age-65" cx="1149.6914639345634" cy="18.809679028894443" style="fill: lime;"></circle><circle r="4" class="s4 age-65" cx="1130.6193240704429" cy="13.032978672145518" style="fill: lime;"></circle><circle r="4" class="s4 age-65" cx="1160.495651985915" cy="-6.001414656205687" style="fill: lime;"></circle><circle r="4" class="s4 age-65" cx="1211.789133270934" cy="39.45152229220805" style="fill: lime;"></circle><circle r="4" class="s4 age-65" cx="1230.1306870571716" cy="31.405941835334264" style="fill: lime;"></circle><circle r="4" class="s4 age-65" cx="1187.8745495918097" cy="21.69824069659156" style="fill: lime;"></circle><circle r="4" class="s4 age-65" cx="1205.0932177948346" cy="23.729147284735703" style="fill: lime;"></circle><circle r="4" class="s4 age-65" cx="1219.7438236601663" cy="45.37774541973027" style="fill: tomato;"></circle><circle r="4" class="s4 age-65" cx="1202.5247521782326" cy="43.49998342620308" style="fill: tomato;"></circle><circle r="4" class="s4 age-65" cx="1158.1534774399754" cy="-15.73427857170807" style="fill: tomato;"></circle><circle r="4" class="s4 age-65" cx="1207.2641315611695" cy="-50.35454969323939" style="fill: tomato;"></circle><circle r="4" class="s4 age-65" cx="1227.7714236756651" cy="51.345148987627574" style="fill: tomato;"></circle><circle r="4" class="s4 age-65" cx="1181.1979654710976" cy="7.112643496523719" style="fill: tomato;"></circle><circle r="4" class="s4 age-65" cx="1156.7069732778539" cy="-52.6972351074385" style="fill: tomato;"></circle><circle r="4" class="s4 age-65" cx="1161.2476012965483" cy="-43.81500356614883" style="fill: tomato;"></circle><circle r="4" class="s4 age-65" cx="1209.2999066603347" cy="59.22902624878315" style="fill: tomato;"></circle><circle r="4" class="s4 age-65" cx="1216.2580553815985" cy="-0.33368080534622496" style="fill: tomato;"></circle><circle r="4" class="s4 age-65" cx="1216.5301345154642" cy="-31.9688522336373" style="fill: tomato;"></circle><circle r="4" class="s4 age-65" cx="1143.4687489960202" cy="-38.08829656417992" style="fill: tomato;"></circle><circle r="4" class="s4 age-65" cx="1166.3791366024802" cy="15.33102625650024" style="fill: tomato;"></circle><circle r="4" class="s4 age-65" cx="1191.3566800559254" cy="-25.070886420248208" style="fill: tomato;"></circle><circle r="4" class="s4 age-65" cx="1164.920122559516" cy="-23.076252533289043" style="fill: tomato;"></circle><circle r="4" class="s4 age-65" cx="1220.9483489476888" cy="-23.072571226333398" style="fill: tomato;"></circle><circle r="4" class="s4 age-65" cx="1233.342792144012" cy="1.4850859184809304" style="fill: tomato;"></circle><circle r="4" class="s4 age-65" cx="1198.2804836380558" cy="7.615194746725773" style="fill: tomato;"></circle><circle r="4" class="s4 age-65" cx="1206.5747469853563" cy="-32.81042295730708" style="fill: tomato;"></circle><circle r="4" class="s4 age-65" cx="1131.787456492624" cy="-14.385639570521736" style="fill: tomato;"></circle><circle r="4" class="s4 age-65" cx="1138.984887776963" cy="-21.312319343353213" style="fill: tomato;"></circle><circle r="4" class="s4 age-65" cx="1195.80808470179" cy="27.58897787811672" style="fill: tomato;"></circle><circle r="4" class="s4 age-65" cx="1225.692532954838" cy="-14.269587357359441" style="fill: tomato;"></circle><circle r="4" class="s4 age-65" cx="1160.886746083779" cy="31.636943820259155" style="fill: tomato;"></circle><circle r="4" class="s4 age-65" cx="1162.409647280618" cy="3.764779365877671" style="fill: tomato;"></circle><circle r="4" class="s4 age-65" cx="1226.538203694247" cy="-46.06606881802279" style="fill: tomato;"></circle><circle r="4" class="s4 age-65" cx="1155.7890760466555" cy="-35.434821230145396" style="fill: tomato;"></circle><circle r="4" class="s4 age-65" cx="1166.302468090967" cy="48.311825866438106" style="fill: tomato;"></circle><circle r="4" class="s4 age-65" cx="1168.6871358282879" cy="25.010280811897143" style="fill: tomato;"></circle><circle r="4" class="s4 age-65" cx="1175.4067897057093" cy="-34.21485810094496" style="fill: tomato;"></circle><circle r="4" class="s4 age-65" cx="1199.5238573273873" cy="63.17946818054161" style="fill: tomato;"></circle><circle r="4" class="s4 age-65" cx="1133.2147040239056" cy="23.06055209485204" style="fill: tomato;"></circle><circle r="4" class="s4 age-65" cx="1195.3402551256218" cy="-16.011174623083573" style="fill: tomato;"></circle><circle r="4" class="s4 age-65" cx="1124.615370683547" cy="-7.417508841917856" style="fill: tomato;"></circle><circle r="4" class="s4 age-65" cx="1238.1610286056361" cy="37.365271696480306" style="fill: tomato;"></circle><circle r="4" class="s4 age-65" cx="1185.3238222353204" cy="41.28766979862348" style="fill: tomato;"></circle><circle r="4" class="s4 age-65" cx="1147.428121265531" cy="9.097287971031921" style="fill: tomato;"></circle><circle r="4" class="s4 age-65" cx="1189.4592303967202" cy="-7.9683851470686164" style="fill: tomato;"></circle><circle r="4" class="s4 age-65" cx="1171.246814276795" cy="-3.1383897797455482" style="fill: tomato;"></circle><circle r="4" class="s4 age-65" cx="1191.5600896911935" cy="57.15123535103045" style="fill: tomato;"></circle><circle r="4" class="s4 age-65" cx="1177.3819585048286" cy="-11.10337804411732" style="fill: tomato;"></circle><circle r="4" class="s4 age-65" cx="1218.549741044282" cy="55.31595539846824" style="fill: tomato;"></circle><circle r="4" class="s4 age-65" cx="1203.7914483873278" cy="33.58756846870296" style="fill: tomato;"></circle><circle r="4" class="s4 age-65" cx="1153.093278244782" cy="0.8888461089354351" style="fill: tomato;"></circle><circle r="4" class="s4 age-65" cx="1175.7694680962695" cy="44.98167590478544" style="fill: tomato;"></circle><circle r="4" class="s4 age-65" cx="1197.2935400454182" cy="17.92893690280236" style="fill: tomato;"></circle><circle r="4" class="s4 age-65" cx="1192.2833106411363" cy="-42.79276204152447" style="fill: tomato;"></circle><circle r="4" class="s4 age-65" cx="1181.4689318203552" cy="-26.26810215933312" style="fill: tomato;"></circle><circle r="4" class="s4 age-65" cx="1150.9197288342857" cy="-8.872079970104673" style="fill: tomato;"></circle><circle r="4" class="s4 age-65" cx="1189.323899428924" cy="11.968070891419638" style="fill: tomato;"></circle><circle r="4" class="s4 age-65" cx="1171.759480853313" cy="6.848431498439891" style="fill: tomato;"></circle><circle r="4" class="s4 age-65" cx="1206.1742133888383" cy="13.653838424566686" style="fill: tomato;"></circle><circle r="4" class="s4 age-65" cx="1165.4930208796636" cy="-33.05750769110438" style="fill: tomato;"></circle><circle r="4" class="s4 age-65" cx="1190.0880211102494" cy="1.997308727736993" style="fill: tomato;"></circle><circle r="4" class="s4 age-65" cx="1207.3259628567482" cy="3.748122222527872" style="fill: tomato;"></circle><circle r="4" class="s4 age-65" cx="1232.3164490318388" cy="11.456953417346197" style="fill: tomato;"></circle><circle r="4" class="s4 age-65" cx="1194.5740485066513" cy="37.420490893030625" style="fill: tomato;"></circle><circle r="4" class="s4 age-65" cx="1214.1882742223065" cy="19.62001561465696" style="fill: tomato;"></circle><circle r="4" class="s4 age-65" cx="1168.1482556825517" cy="38.47712851713533" style="fill: tomato;"></circle><circle r="4" class="s4 age-65" cx="1178.6793484049824" cy="25.40485363664756" style="fill: tomato;"></circle><circle r="4" class="s4 age-65" cx="1134.233748065048" cy="-4.681304485675014" style="fill: tomato;"></circle><circle r="4" class="s4 age-65" cx="1193.2974978724678" cy="47.33867710438862" style="fill: tomato;"></circle><circle r="4" class="s4 age-65" cx="1215.0341705549488" cy="-13.297162792016719" style="fill: tomato;"></circle><circle r="4" class="s4 age-65" cx="1224.2165371202566" cy="5.592533657496586" style="fill: tomato;"></circle><circle r="4" class="s4 age-65" cx="1174.3748370140393" cy="54.88394819843807" style="fill: tomato;"></circle><circle r="4" class="s4 age-65" cx="1205.2992222435632" cy="-15.584252233377361" style="fill: tomato;"></circle><circle r="4" class="s4 age-65" cx="1213.0798962982408" cy="29.573396968140354" style="fill: tomato;"></circle><circle r="4" class="s5 age-undefined" cx="1559.8701498960277" cy="10.4523110830149" style="fill: lime;"></circle><circle r="4" class="s5 age-undefined" cx="1581.3467960496178" cy="-30.91909460194468" style="fill: lime;"></circle><circle r="4" class="s5 age-undefined" cx="1572.5232324182177" cy="30.88209325057637" style="fill: lime;"></circle><circle r="4" class="s5 age-undefined" cx="1568.4524500812586" cy="1.2027207821520558" style="fill: lime;"></circle><circle r="4" class="s5 age-undefined" cx="1557.608177525377" cy="-11.958681825798784" style="fill: lime;"></circle><circle r="4" class="s5 age-undefined" cx="1562.5412398698443" cy="30.26875950374394" style="fill: lime;"></circle><circle r="4" class="s5 age-undefined" cx="1564.2032383514238" cy="-28.448073183593603" style="fill: lime;"></circle><circle r="4" class="s5 age-undefined" cx="1569.8458705209266" cy="11.077217285699568" style="fill: lime;"></circle><circle r="4" class="s5 age-undefined" cx="1586.9995947701664" cy="8.676169474674262" style="fill: lime;"></circle><circle r="4" class="s5 age-undefined" cx="1582.7831905486698" cy="-21.02450852714283" style="fill: lime;"></circle><circle r="4" class="s5 age-undefined" cx="1576.2709612427395" cy="42.96920769449669" style="fill: lime;"></circle><circle r="4" class="s5 age-undefined" cx="1574.9225919752057" cy="-14.851773944023034" style="fill: lime;"></circle><circle r="4" class="s5 age-undefined" cx="1576.3230611918732" cy="-4.962480095695179" style="fill: lime;"></circle><circle r="4" class="s5 age-undefined" cx="1571.2337262908202" cy="20.980742145892183" style="fill: lime;"></circle><circle r="4" class="s5 age-undefined" cx="1562.7752186273672" cy="-38.33878334694167" style="fill: lime;"></circle><circle r="4" class="s5 age-undefined" cx="1580.5043476904227" cy="24.724951764048086" style="fill: lime;"></circle><circle r="4" class="s5 age-undefined" cx="1585.600542719944" cy="-1.2234519467580118" style="fill: lime;"></circle><circle r="4" class="s5 age-undefined" cx="1565.637363367623" cy="-18.5649926567213" style="fill: lime;"></circle><circle r="4" class="s5 age-undefined" cx="1567.0032552262455" cy="39.21445030641145" style="fill: lime;"></circle><circle r="4" class="s5 age-undefined" cx="1556.203298243836" cy="-21.859486986027406" style="fill: tomato;"></circle><circle r="4" class="s5 age-undefined" cx="1577.7246706168874" cy="4.931504530191563" style="fill: tomato;"></circle><circle r="4" class="s5 age-undefined" cx="1558.4798545924677" cy="0.5515654239305238" style="fill: tomato;"></circle><circle r="4" class="s5 age-undefined" cx="1572.0617936022325" cy="-34.63427667640986" style="fill: tomato;"></circle><circle r="4" class="s5 age-undefined" cx="1581.789383375286" cy="34.63493791965601" style="fill: tomato;"></circle><circle r="4" class="s5 age-undefined" cx="1567.0506245373267" cy="-8.669654778798408" style="fill: tomato;"></circle><circle r="4" class="s5 age-undefined" cx="1584.1954939655586" cy="-11.123391033955452" style="fill: tomato;"></circle><circle r="4" class="s5 age-undefined" cx="1561.2576116518405" cy="20.352042088721106" style="fill: tomato;"></circle><circle r="4" class="s5 age-undefined" cx="1573.4919862179213" cy="-24.737077641832837" style="fill: tomato;"></circle><circle r="4" class="s5 age-undefined" cx="1579.120336302269" cy="14.83363142963923" style="fill: tomato;"></circle></g>
    </svg>