<svg width="2200" height="400">
      <g transform="translate(50, 200)"><circle r="4" class="s2 age-75" cx="397.84245017156394" cy="1.4647449329092825" style="fill: lime;"></circle><circle r="4" class="s2 age-75" cx="406.65717165301197" cy="-16.485546974299826" style="fill: lime;"></circle><circle r="4" class="s2 age-75" cx="402.250473660208" cy="-7.508751986861856" style="fill: lime;"></circle><circle r="4" class="s2 age-75" cx="403.4098404428556" cy="9.768843735517338" style="fill: lime;"></circle><circle r="4" class="s2 age-75" cx="413.3861887416568" cy="9.09894372018568" style="fill: lime;"></circle><circle r="4" class="s2 age-75" cx="422.2042659682375" cy="-8.852536567943034" style="fill: lime;"></circle><circle r="4" class="s2 age-75" cx="408.9819715154955" cy="18.073327021646765" style="fill: lime;"></circle><circle r="4" class="s2 age-75" cx="417.79508407350323" cy="0.12447879323018386" style="fill: lime;"></circle><circle r="4" class="s2 age-75" cx="423.3640207412088" cy="8.427464657063018" style="fill: tomato;"></circle><circle r="4" class="s2 age-75" cx="407.8183855904356" cy="0.794895501261021" style="fill: tomato;"></circle><circle r="4" class="s2 age-75" cx="416.63395842366896" cy="-17.15610774356703" style="fill: tomato;"></circle><circle r="4" class="s2 age-75" cx="418.9586132863931" cy="17.402471425558012" style="fill: tomato;"></circle><circle r="4" class="s2 age-75" cx="412.22560842203217" cy="-8.180226156661451" style="fill: tomato;"></circle><circle r="4" class="s2 age-75" cx="427.7701762688326" cy="-0.5476479674593762" style="fill: tomato;"></circle><circle r="4" class="s3 age-75" cx="845.3951020281073" cy="-6.702346813462749" style="fill: lime;"></circle><circle r="4" class="s3 age-75" cx="800.0765611632659" cy="-0.32778670132638626" style="fill: lime;"></circle><circle r="4" class="s3 age-75" cx="800.1246802820664" cy="-46.03836904260589" style="fill: lime;"></circle><circle r="4" class="s3 age-75" cx="817.141769450554" cy="-42.769215464909" style="fill: lime;"></circle><circle r="4" class="s3 age-75" cx="778.4099379213263" cy="-18.890586058508042" style="fill: lime;"></circle><circle r="4" class="s3 age-75" cx="820.7117471388981" cy="29.18805519847229" style="fill: lime;"></circle><circle r="4" class="s3 age-75" cx="788.6866094729011" cy="12.676704835977183" style="fill: lime;"></circle><circle r="4" class="s3 age-75" cx="832.1091850056162" cy="16.152048481296024" style="fill: lime;"></circle><circle r="4" class="s3 age-75" cx="773.6424677284556" cy="-6.8652465915716" style="fill: lime;"></circle><circle r="4" class="s3 age-75" cx="801.7941556466378" cy="35.63641610539748" style="fill: lime;"></circle><circle r="4" class="s3 age-75" cx="834.0148654329037" cy="6.349595896427493" style="fill: lime;"></circle><circle r="4" class="s3 age-75" cx="803.7347233434595" cy="25.837831570103468" style="fill: lime;"></circle><circle r="4" class="s3 age-75" cx="817.0461974709443" cy="3.013095577843682" style="fill: lime;"></circle><circle r="4" class="s3 age-75" cx="788.3884298773609" cy="-34.56551360383641" style="fill: lime;"></circle><circle r="4" class="s3 age-75" cx="807.6922351297058" cy="-39.50887299701447" style="fill: lime;"></circle><circle r="4" class="s3 age-75" cx="781.1508552851192" cy="-0.2772587672658981" style="fill: lime;"></circle><circle r="4" class="s3 age-75" cx="786.5001805597416" cy="-24.74277914346235" style="fill: lime;"></circle><circle r="4" class="s3 age-75" cx="779.2109383979144" cy="9.526064091510625" style="fill: lime;"></circle><circle r="4" class="s3 age-75" cx="822.653919072384" cy="19.3912246150806" style="fill: lime;"></circle><circle r="4" class="s3 age-75" cx="832.2525685844091" cy="-29.66475708961897" style="fill: lime;"></circle><circle r="4" class="s3 age-75" cx="809.3080871119664" cy="42.216409190325805" style="fill: lime;"></circle><circle r="4" class="s3 age-75" cx="796.2170863961808" cy="19.25195810858365" style="fill: lime;"></circle><circle r="4" class="s3 age-75" cx="822.8069800288679" cy="-26.412937482466475" style="fill: lime;"></circle><circle r="4" class="s3 age-75" cx="798.2428702798246" cy="-36.22818968784191" style="fill: lime;"></circle><circle r="4" class="s3 age-75" cx="777.2743455258957" cy="19.335716038131483" style="fill: lime;"></circle><circle r="4" class="s3 age-75" cx="793.1520772404915" cy="-16.89436029912604" style="fill: lime;"></circle><circle r="4" class="s3 age-75" cx="783.1004024025879" cy="-10.079859309879629" style="fill: tomato;"></circle><circle r="4" class="s3 age-75" cx="843.4631710548865" cy="3.107487606259129" style="fill: tomato;"></circle><circle r="4" class="s3 age-75" cx="813.368011198949" cy="-23.15579797819328" style="fill: tomato;"></circle><circle r="4" class="s3 age-75" cx="792.3382103596035" cy="38.85753603880551" style="fill: tomato;"></circle><circle r="4" class="s3 age-75" cx="830.3378728593723" cy="-19.8542052906275" style="fill: tomato;"></circle><circle r="4" class="s3 age-75" cx="790.6290746457526" cy="2.8839137087565256" style="fill: tomato;"></circle><circle r="4" class="s3 age-75" cx="805.800627101103" cy="-29.699736626330953" style="fill: tomato;"></circle><circle r="4" class="s3 age-75" cx="784.8109415893514" cy="32.27596067973245" style="fill: tomato;"></circle><circle r="4" class="s3 age-75" cx="818.7736490140159" cy="38.99267732672026" style="fill: tomato;"></circle><circle r="4" class="s3 age-75" cx="802.0016277854941" cy="-10.103841697734035" style="fill: tomato;"></circle><circle r="4" class="s3 age-75" cx="815.2418856678412" cy="-32.95899757083393" style="fill: tomato;"></circle><circle r="4" class="s3 age-75" cx="828.2339717909248" cy="35.765738132673526" style="fill: tomato;"></circle><circle r="4" class="s3 age-75" cx="818.9704589502951" cy="-6.7826856573604495" style="fill: tomato;"></circle><circle r="4" class="s3 age-75" cx="811.2532722488511" cy="32.40991822875532" style="fill: tomato;"></circle><circle r="4" class="s3 age-75" cx="837.8711904687641" cy="-13.27954547091602" style="fill: tomato;"></circle><circle r="4" class="s3 age-75" cx="813.193224753225" cy="22.61603411824194" style="fill: tomato;"></circle><circle r="4" class="s3 age-75" cx="786.7629138688329" cy="22.46220635294274" style="fill: tomato;"></circle><circle r="4" class="s3 age-75" cx="798.1345796006253" cy="9.45187345837662" style="fill: tomato;"></circle><circle r="4" class="s3 age-75" cx="803.9207496264122" cy="-19.903525454689706" style="fill: tomato;"></circle><circle r="4" class="s3 age-75" cx="830.171410163955" cy="25.955216622795763" style="fill: tomato;"></circle><circle r="4" class="s3 age-75" cx="824.5774733687155" cy="9.579689745898381" style="fill: tomato;"></circle><circle r="4" class="s3 age-75" cx="828.4128750260808" cy="-10.038444524021074" style="fill: tomato;"></circle><circle r="4" class="s3 age-75" cx="835.9458179192834" cy="-3.465142596351062" style="fill: tomato;"></circle><circle r="4" class="s3 age-75" cx="826.4866057022168" cy="-0.2211783190364415" style="fill: tomato;"></circle><circle r="4" class="s3 age-75" cx="807.5985122232156" cy="6.230711472804317" style="fill: tomato;"></circle><circle r="4" class="s3 age-75" cx="792.5629962126494" cy="-6.909544478430679" style="fill: tomato;"></circle><circle r="4" class="s3 age-75" cx="815.1334892001446" cy="12.809266225583867" style="fill: tomato;"></circle><circle r="4" class="s3 age-75" cx="824.6954577927838" cy="-36.21936163831496" style="fill: tomato;"></circle><circle r="4" class="s3 age-75" cx="805.6696950114967" cy="16.03983883618165" style="fill: tomato;"></circle><circle r="4" class="s3 age-75" cx="820.8950987997956" cy="-16.607699590034617" style="fill: tomato;"></circle><circle r="4" class="s3 age-75" cx="809.5221292806722" cy="-3.5497419784730706" style="fill: tomato;"></circle><circle r="4" class="s3 age-75" cx="811.4434975691805" cy="-13.363423443561409" style="fill: tomato;"></circle><circle r="4" class="s3 age-75" cx="794.2857422974258" cy="29.05060919189614" style="fill: tomato;"></circle><circle r="4" class="s3 age-75" cx="796.3432032232595" cy="-26.41414483989417" style="fill: tomato;"></circle><circle r="4" class="s4 age-75" cx="1200.65384578379" cy="-42.63439457693477" style="fill: lime;"></circle><circle r="4" class="s4 age-75" cx="1163.1582009987508" cy="-6.109512197545468" style="fill: lime;"></circle><circle r="4" class="s4 age-75" cx="1172.709438333895" cy="-9.040610883251338" style="fill: lime;"></circle><circle r="4" class="s4 age-75" cx="1231.4780039265615" cy="4.001520831969651" style="fill: lime;"></circle><circle r="4" class="s4 age-75" cx="1191.6165229891765" cy="31.90601227896053" style="fill: lime;"></circle><circle r="4" class="s4 age-75" cx="1174.3205449046218" cy="-45.24694906570085" style="fill: lime;"></circle><circle r="4" class="s4 age-75" cx="1165.7675273576986" cy="22.51787443839013" style="fill: lime;"></circle><circle r="4" class="s4 age-75" cx="1203.6059815604024" cy="13.849795216791888" style="fill: lime;"></circle><circle r="4" class="s4 age-75" cx="1225.3314038366905" cy="-3.8774204225747515" style="fill: lime;"></circle><circle r="4" class="s4 age-75" cx="1204.6932136777523" cy="-25.851698172131584" style="fill: lime;"></circle><circle r="4" class="s4 age-75" cx="1228.5160555021212" cy="13.550087732394223" style="fill: lime;"></circle><circle r="4" class="s4 age-75" cx="1200.2760916052885" cy="45.666188057838674" style="fill: lime;"></circle><circle r="4" class="s4 age-75" cx="1167.7581851047782" cy="11.918348280664294" style="fill: lime;"></circle><circle r="4" class="s4 age-75" cx="1156.2946944511336" cy="-13.368772595274883" style="fill: lime;"></circle><circle r="4" class="s4 age-75" cx="1201.4553689771017" cy="25.713318822480755" style="fill: lime;"></circle><circle r="4" class="s4 age-75" cx="1218.3909834670267" cy="-11.226969963611493" style="fill: lime;"></circle><circle r="4" class="s4 age-75" cx="1209.208588883606" cy="41.17336126507263" style="fill: lime;"></circle><circle r="4" class="s4 age-75" cx="1156.6392098205881" cy="26.534203987275284" style="fill: lime;"></circle><circle r="4" class="s4 age-75" cx="1194.9330548264884" cy="-23.507992069550028" style="fill: lime;"></circle><circle r="4" class="s4 age-75" cx="1218.1396715392611" cy="36.667265152698796" style="fill: lime;"></circle><circle r="4" class="s4 age-75" cx="1173.5588502142614" cy="28.77195421972248" style="fill: lime;"></circle><circle r="4" class="s4 age-75" cx="1182.1284500439428" cy="34.975110824166684" style="fill: lime;"></circle><circle r="4" class="s4 age-75" cx="1193.7803795685288" cy="-49.89141222791233" style="fill: lime;"></circle><circle r="4" class="s4 age-75" cx="1196.205192953332" cy="2.70361996947611" style="fill: lime;"></circle><circle r="4" class="s4 age-75" cx="1184.049239229743" cy="-47.56873898505131" style="fill: lime;"></circle><circle r="4" class="s4 age-75" cx="1228.175837335321" cy="23.53416152878034" style="fill: lime;"></circle><circle r="4" class="s4 age-75" cx="1171.4751262716077" cy="-35.662022258244235" style="fill: lime;"></circle><circle r="4" class="s4 age-75" cx="1218.7870050410122" cy="15.833958376384055" style="fill: lime;"></circle><circle r="4" class="s4 age-75" cx="1181.5389058341532" cy="44.9506882144687" style="fill: lime;"></circle><circle r="4" class="s4 age-75" cx="1161.7590168191034" cy="-33.30930907103108" style="fill: lime;"></circle><circle r="4" class="s4 age-75" cx="1224.1541382827913" cy="-30.358917297076804" style="fill: lime;"></circle><circle r="4" class="s4 age-75" cx="1191.0419628985446" cy="41.82391140724287" style="fill: lime;"></circle><circle r="4" class="s4 age-75" cx="1207.5627467990566" cy="-35.41330336908769" style="fill: lime;"></circle><circle r="4" class="s4 age-75" cx="1212.005249990984" cy="8.493806664012325" style="fill: lime;"></circle><circle r="4" class="s4 age-75" cx="1160.7236243115094" cy="4.819953395148588" style="fill: lime;"></circle><circle r="4" class="s4 age-75" cx="1218.7054303267153" cy="26.683922258985437" style="fill: lime;"></circle><circle r="4" class="s4 age-75" cx="1158.973886427448" cy="-23.55348394033882" style="fill: lime;"></circle><circle r="4" class="s4 age-75" cx="1228.113292293192" cy="-13.479761199056298" style="fill: lime;"></circle><circle r="4" class="s4 age-75" cx="1201.8255894018084" cy="-16.33658286939911" style="fill: lime;"></circle><circle r="4" class="s4 age-75" cx="1197.805793942719" cy="-33.06413757540545" style="fill: lime;"></circle><circle r="4" class="s4 age-75" cx="1182.7713166946032" cy="25.040691715223996" style="fill: tomato;"></circle><circle r="4" class="s4 age-75" cx="1177.028662183341" cy="8.244184498364135" style="fill: tomato;"></circle><circle r="4" class="s4 age-75" cx="1200.843910249687" cy="35.68460714561696" style="fill: tomato;"></circle><circle r="4" class="s4 age-75" cx="1189.2376325053092" cy="-4.345732309912479" style="fill: tomato;"></circle><circle r="4" class="s4 age-75" cx="1175.50203971427" cy="-18.83130738176257" style="fill: tomato;"></circle><circle r="4" class="s4 age-75" cx="1181.1880598982916" cy="-37.99760384425988" style="fill: tomato;"></circle><circle r="4" class="s4 age-75" cx="1172.8696463464785" cy="38.74534714032762" style="fill: tomato;"></circle><circle r="4" class="s4 age-75" cx="1210.3385328728277" cy="21.19698822834913" style="fill: tomato;"></circle><circle r="4" class="s4 age-75" cx="1215.6102907895024" cy="-1.6543686515448752" style="fill: tomato;"></circle><circle r="4" class="s4 age-75" cx="1190.922292508379" cy="-40.322748547174406" style="fill: tomato;"></circle><circle r="4" class="s4 age-75" cx="1168.6374916338982" cy="-26.075128209916794" style="fill: tomato;"></circle><circle r="4" class="s4 age-75" cx="1188.0846974281958" cy="-30.747278796655205" style="fill: tomato;"></circle><circle r="4" class="s4 age-75" cx="1184.2540927046562" cy="15.13354056530696" style="fill: tomato;"></circle><circle r="4" class="s4 age-75" cx="1170.0080319696747" cy="1.1460593066713944" style="fill: tomato;"></circle><circle r="4" class="s4 age-75" cx="1205.8655116541308" cy="0.6014803060084518" style="fill: tomato;"></circle><circle r="4" class="s4 age-75" cx="1209.7734743249614" cy="31.18317574490068" style="fill: tomato;"></circle><circle r="4" class="s4 age-75" cx="1221.2872595750734" cy="-20.78036791045081" style="fill: tomato;"></circle><circle r="4" class="s4 age-75" cx="1214.4072542129043" cy="-28.128395480524706" style="fill: tomato;"></circle><circle r="4" class="s4 age-75" cx="1208.6833949165182" cy="-8.992676004579781" style="fill: tomato;"></circle><circle r="4" class="s4 age-75" cx="1193.8145393452985" cy="12.161570435582556" style="fill: tomato;"></circle><circle r="4" class="s4 age-75" cx="1164.4337979373763" cy="32.7869567127385" style="fill: tomato;"></circle><circle r="4" class="s4 age-75" cx="1192.2603544965966" cy="22.037561409442795" style="fill: tomato;"></circle><circle r="4" class="s4 age-75" cx="1165.8466448791537" cy="-16.293319620685875" style="fill: tomato;"></circle><circle r="4" class="s4 age-75" cx="1178.3476087162019" cy="-28.413418184252826" style="fill: tomato;"></circle><circle r="4" class="s4 age-75" cx="1192.0836148661438" cy="-13.949737795701678" style="fill: tomato;"></circle><circle r="4" class="s4 age-75" cx="1198.965260800092" cy="-6.732950646133195" style="fill: tomato;"></circle><circle r="4" class="s4 age-75" cx="1174.9900189565833" cy="18.771157174024744" style="fill: tomato;"></circle><circle r="4" class="s4 age-75" cx="1158.4979666698669" cy="15.66521927149897" style="fill: tomato;"></circle><circle r="4" class="s4 age-75" cx="1182.366673842576" cy="-11.589952912923822" style="fill: tomato;"></circle><circle r="4" class="s4 age-75" cx="1185.209730930574" cy="-21.177289678204872" style="fill: tomato;"></circle><circle r="4" class="s4 age-75" cx="1179.5667062724228" cy="-1.7792614949103005" style="fill: tomato;"></circle><circle r="4" class="s4 age-75" cx="1191.399770445852" cy="51.817507323749865" style="fill: tomato;"></circle><circle r="4" class="s4 age-75" cx="1211.5389259341432" cy="-18.56267627060605" style="fill: tomato;"></circle><circle r="4" class="s4 age-75" cx="1186.596308632063" cy="5.333029541347088" style="fill: tomato;"></circle><circle r="4" class="s4 age-75" cx="1221.7426575171307" cy="6.224700760254175" style="fill: tomato;"></circle><circle r="4" class="s5 age-undefined" cx="1589.551464543045" cy="-32.04975316742848" style="fill: lime;"></circle><circle r="4" class="s5 age-undefined" cx="1585.6043189442048" cy="42.2036638187327" style="fill: lime;"></circle><circle r="4" class="s5 age-undefined" cx="1581.811413835732" cy="-38.38331436504444" style="fill: lime;"></circle><circle r="4" class="s5 age-undefined" cx="1585.539527036109" cy="22.213910329324456" style="fill: lime;"></circle><circle r="4" class="s5 age-undefined" cx="1585.6281628273166" cy="12.215687036558618" style="fill: lime;"></circle><circle r="4" class="s5 age-undefined" cx="1591.1664494620863" cy="-41.917493033380055" style="fill: tomato;"></circle><circle r="4" class="s5 age-undefined" cx="1585.8455759449607" cy="52.19934305390716" style="fill: tomato;"></circle><circle r="4" class="s5 age-undefined" cx="1580.1949491182363" cy="-28.516704161850605" style="fill: tomato;"></circle><circle r="4" class="s5 age-undefined" cx="1587.932790202945" cy="-22.182210074125685" style="fill: tomato;"></circle><circle r="4" class="s5 age-undefined" cx="1585.8323005392774" cy="32.20865328586526" style="fill: tomato;"></circle><circle r="4" class="s5 age-undefined" cx="1583.4282093623178" cy="-48.25149967665907" style="fill: tomato;"></circle></g>
    </svg>